<?xml version="1.0" encoding="utf-8"?>
<!-- Generator: Adobe Illustrator 17.1.0, SVG Export Plug-In . SVG Version: 6.00 Build 0)  -->
<!DOCTYPE svg PUBLIC "-//W3C//DTD SVG 1.1//EN" "http://www.w3.org/Graphics/SVG/1.1/DTD/svg11.dtd">
<svg version="1.1" xmlns="http://www.w3.org/2000/svg" xmlns:xlink="http://www.w3.org/1999/xlink" x="0px" y="0px"
	 viewBox="0 0 95.6 127.5" enable-background="new 0 0 95.6 127.5" xml:space="preserve">
<g id="Layer_1" display="none">
	<g id="Menu" display="inline">
	</g>
</g>
<g id="Layer_3">
	<rect x="-4006.3" y="-37.9" fill="none" width="15551.3" height="7776.2"/>
	<g>
		<path fill="#4D81EF" stroke="" stroke-width="0.3" stroke-miterlimit="10" d="M0.2,0.1c31.8,0,63.5,0,95.3,0
			c0,0.7,0,1.3,0,2c0,36.3,0,72.5,0,108.8c0,1.3-0.3,2.2-1.2,3.1c-4.2,4.1-8.2,8.2-12.4,12.3c-0.5,0.5-1.4,0.9-2.1,0.9
			c-26.2,0-52.4,0-78.6,0c-0.3,0-0.6,0-1-0.1C0.2,84.9,0.2,42.6,0.2,0.1z M3,3c0,40.6,0,81,0,121.4c25.2,0,50.3,0,75.6,0
			c0-4.8,0-9.4,0-14.1c4.8,0,9.3,0,14,0c0-35.8,0-71.5,0-107.3C62.7,3,32.9,3,3,3z M81.4,122.3c3-3,6-6,9-9c-2.9,0-5.9,0-9,0
			C81.4,116.4,81.4,119.5,81.4,122.3z"/>
		<path fill="#4D81EF" stroke="" stroke-width="0.3" stroke-miterlimit="10" d="M80.8,42.6c0,2.7,0,5.2,0,8
			c-9.6,0-19.3,0-29,0c0-2.7,0-5.3,0-8C61.5,42.6,71,42.6,80.8,42.6z M54.6,48c7.9,0,15.6,0,23.4,0c0-0.9,0-1.7,0-2.5
			c-7.9,0-15.6,0-23.4,0C54.6,46.4,54.6,47.1,54.6,48z"/>
		<path fill="#4D81EF" stroke="" stroke-width="0.3" stroke-miterlimit="10" d="M80.8,26.9c-9.7,0-19.3,0-29,0
			c0-2.7,0-5.3,0-8c9.7,0,19.2,0,29,0C80.8,21.5,80.8,24.1,80.8,26.9z M54.6,24c7.9,0,15.7,0,23.3,0c0-0.9,0-1.6,0-2.3
			c-7.9,0-15.6,0-23.3,0C54.6,22.5,54.6,23.2,54.6,24z"/>
		<path fill="#4D81EF" stroke="" stroke-width="0.3" stroke-miterlimit="10" d="M51.8,38.9c0-2.7,0-5.2,0-7.9
			c9.7,0,19.3,0,29,0c0,2.6,0,5.2,0,7.9C71.1,38.9,61.5,38.9,51.8,38.9z M78,33.6c-7.8,0-15.5,0-23.3,0c0,0.9,0,1.7,0,2.4
			c7.8,0,15.5,0,23.3,0C78,35.2,78,34.5,78,33.6z"/>
		<path fill="#4D81EF" stroke="" stroke-width="0.3" stroke-miterlimit="10" d="M39.6,104c0-0.9,0-1.6,0-2.5
			c13.8,0,27.5,0,41.3,0c0,0.8,0,1.6,0,2.5C67.2,104,53.5,104,39.6,104z"/>
		<path fill="#4D81EF" stroke="" stroke-width="0.3" stroke-miterlimit="10" d="M39.6,97.1c0-1,0-1.7,0-2.6
			c13.7,0,27.4,0,41.3,0c0,0.8,0,1.6,0,2.6C67.2,97.1,53.5,97.1,39.6,97.1z"/>
		<path fill="#4D81EF" stroke="" stroke-width="0.3" stroke-miterlimit="10" d="M81,80.1c0,0.9,0,1.6,0,2.5
			c-13.7,0-27.5,0-41.3,0c0-0.8,0-1.6,0-2.5C53.4,80.1,67.1,80.1,81,80.1z"/>
		<path fill="#4D81EF" stroke="" stroke-width="0.3" stroke-miterlimit="10" d="M44.5,50.7c-4.9,0-9.6,0-14.5,0
			c0.1-0.4,0.2-0.7,0.3-1c2-4.4,4-8.7,6-13.1c0.4-1,1-1.3,2-1.1c3.4,0.6,5.6,2.8,6.1,6.1c0.1,0.5,0.1,1.1,0.1,1.6
			C44.5,45.6,44.5,48.1,44.5,50.7z M41.5,48c0.5-6.2,0.6-8.7-2.9-9.5c-1.4,3.1-2.9,6.3-4.4,9.5C36.8,48,39.1,48,41.5,48z"/>
		<path fill="#4D81EF" stroke="" stroke-width="0.3" stroke-miterlimit="10" d="M29,50.7c-5,0-9.6,0-14.4,0
			c0-3.5-0.3-7,0.1-10.4c0.3-2.7,3.5-5,6.3-4.9c0.4,0,1.1,0.4,1.3,0.8C24.6,41,26.7,45.7,29,50.7z M20.3,38.4
			c-1.5,0.5-2.7,1.3-2.9,2.7c-0.2,2.3-0.1,4.5-0.1,6.9c2.4,0,4.7,0,7.3,0C23.2,44.7,21.7,41.5,20.3,38.4z"/>
		<path fill="#4D81EF" stroke="" stroke-width="0.3" stroke-miterlimit="10" d="M29.4,18.8c4.1,0,7.4,3.2,7.4,7.3
			c0,4.1-3.3,7.4-7.4,7.5c-4,0-7.4-3.3-7.5-7.4C22,22.2,25.3,18.8,29.4,18.8z M24.8,26.2c0,2.5,2.2,4.6,4.7,4.6
			c2.5,0,4.5-2.1,4.5-4.7c0-2.6-2.1-4.6-4.6-4.5C26.8,21.6,24.8,23.7,24.8,26.2z"/>
		<path fill="#4D81EF" stroke="" stroke-width="0.3" stroke-miterlimit="10" d="M80.9,75.7c-13.8,0-27.5,0-41.3,0
			c0-0.8,0-1.6,0-2.5c13.7,0,27.5,0,41.3,0C80.9,74,80.9,74.8,80.9,75.7z"/>
		<path fill="#4D81EF" stroke="" stroke-width="0.3" stroke-miterlimit="10" d="M21,86.1c-2.1-2.3-4.1-4.5-6.2-6.8
			c0.4-0.5,1.2-1.3,2.1-2.3c1.3,1.2,2.5,2.3,3.8,3.6c3-3.6,5.9-7.2,9-10.9c0.9,0.8,1.8,1.5,2.8,2.4C28.6,76.9,24.9,81.4,21,86.1z"/>
		<path fill="#4D81EF" stroke="" stroke-width="0.3" stroke-miterlimit="10" d="M21,107.4c-2.1-2.3-4.1-4.5-6.2-6.8
			c0.4-0.5,1.2-1.3,2-2.2c1.3,1.2,2.5,2.3,3.8,3.6c3-3.6,5.9-7.2,9-10.9c1,0.8,1.8,1.6,2.8,2.4C28.6,98.1,24.9,102.7,21,107.4z"/>
		<path fill="#4D81EF" stroke="" stroke-width="0.3" stroke-miterlimit="10" d="M29.5,45.9c-1.5-3.4-2.9-6.5-4.4-9.7
			c2.9,0,5.7,0,8.8,0C32.4,39.4,31,42.5,29.5,45.9z"/>
	</g>
</g>
</svg>
