<?xml version="1.0" encoding="utf-8"?>
<!-- Generator: Adobe Illustrator 17.1.0, SVG Export Plug-In . SVG Version: 6.00 Build 0)  -->
<!DOCTYPE svg PUBLIC "-//W3C//DTD SVG 1.1//EN" "http://www.w3.org/Graphics/SVG/1.1/DTD/svg11.dtd">
<svg version="1.1" xmlns="http://www.w3.org/2000/svg" xmlns:xlink="http://www.w3.org/1999/xlink" x="0px" y="0px"
	 viewBox="0 0 125 130.5" enable-background="new 0 0 125 130.5" xml:space="preserve">
<g id="Layer_1" display="none">
	<g id="Menu" display="inline">
	</g>
</g>
<g id="Layer_3">
	<rect x="-4783.5" y="-280.4" fill="none" width="15551.3" height="7776.2"/>
	<g>
		<path fill="#4D81EF" stroke="" stroke-width="2.3" stroke-miterlimit="10" d="M110,106.7c0,2,0,4,0,6.2c3.4,0,6.5,0,9.7,0
			c0,5.6,0,10.9,0,16.4c-38.1,0-76.2,0-114.5,0c0-5.4,0-10.7,0-16.4c3.1,0,6.3,0,9.7,0c0-2.3,0-4.3,0-6.3
			C46.7,106.7,78.2,106.7,110,106.7z M104.5,112.2c-28.2,0-56.1,0-84.1,0c0,2.1,0,4,0,6.2c-3.3,0-6.5,0-9.8,0c0,2,0,3.8,0,5.4
			c34.7,0,69.2,0,103.7,0c0-1.9,0-3.5,0-5.5c-3.3,0-6.5,0-9.8,0C104.5,116.2,104.5,114.3,104.5,112.2z"/>
		<path fill="#4D81EF" stroke="" stroke-width="2.3" stroke-miterlimit="10" d="M3.5,45.1c19.9-14.7,39.4-29.1,59-43.6
			c19.6,14.5,39,28.9,59,43.6C82,45.1,43.1,45.1,3.5,45.1z M20,39.6c28.6,0,56.4,0,85,0C90.4,28.9,76.5,18.5,62.5,8.2
			C48.4,18.6,34.5,28.9,20,39.6z"/>
		<path fill="#4D81EF" stroke="" stroke-width="2.3" stroke-miterlimit="10" d="M52.1,52.6c7,0,13.8,0,20.7,0
			c0,15.6,0,31.1,0,46.7c-6.9,0-13.7,0-20.7,0C52.1,83.8,52.1,68.4,52.1,52.6z M67.4,93.9c0-12,0-23.9,0-35.8c-3.4,0-6.5,0-9.8,0
			c0,12,0,23.8,0,35.8C60.9,93.9,64,93.9,67.4,93.9z"/>
		<path fill="#4D81EF" stroke="" stroke-width="2.3" stroke-miterlimit="10" d="M20.1,52.6c6.9,0,13.6,0,20.5,0
			c0,15.5,0,31,0,46.7c-6.8,0-13.6,0-20.5,0C20.1,83.8,20.1,68.3,20.1,52.6z M35.3,58c-3.4,0-6.6,0-9.8,0c0,12,0,24,0,35.8
			c3.4,0,6.6,0,9.8,0C35.3,81.8,35.3,70,35.3,58z"/>
		<path fill="#4D81EF" stroke="" stroke-width="2.3" stroke-miterlimit="10" d="M104.9,99.3c-6.9,0-13.6,0-20.6,0
			c0-15.5,0-31,0-46.7c6.8,0,13.6,0,20.6,0C104.9,68.2,104.9,83.6,104.9,99.3z M89.6,57.9c0,12.2,0,24,0,35.9c3.4,0,6.6,0,9.9,0
			c0-12,0-23.9,0-35.9c-0.5,0-0.9-0.1-1.3-0.1C95.4,57.9,92.6,57.9,89.6,57.9z"/>
		<path fill="#4D81EF" stroke="" stroke-width="2.3" stroke-miterlimit="10" d="M62.6,34.3c-4.3,0-7.7-3.3-7.8-7.5
			c0-4.2,3.4-7.6,7.6-7.6c4.2,0,7.6,3.4,7.6,7.6C70.1,30.9,66.7,34.3,62.6,34.3z M59.4,26.7c1.4,1,2.2,2.1,3,2.1c0.8-0.1,2-1.3,2-2
			c0-0.7-1.2-1.9-1.9-2.1C61.8,24.7,60.9,25.7,59.4,26.7z"/>
	</g>
</g>
</svg>
