<?xml version="1.0" encoding="utf-8"?>
<!-- Generator: Adobe Illustrator 17.1.0, SVG Export Plug-In . SVG Version: 6.00 Build 0)  -->
<!DOCTYPE svg PUBLIC "-//W3C//DTD SVG 1.1//EN" "http://www.w3.org/Graphics/SVG/1.1/DTD/svg11.dtd">
<svg version="1.1" xmlns="http://www.w3.org/2000/svg" xmlns:xlink="http://www.w3.org/1999/xlink" x="0px" y="0px"
	 viewBox="0 0 121.2 121.5" enable-background="new 0 0 121.2 121.5" xml:space="preserve">
<g id="Layer_1" display="none">
	<g id="Menu" display="inline">
	</g>
</g>
<g id="Layer_3">
	<rect x="-4394.9" y="-47.1" fill="none" width="15551.3" height="7776.2"/>
	<g>
		<path fill="#42D69D" stroke="" stroke-width="0.6" stroke-miterlimit="10" d="M8.3,85c0-28.4,0-56.5,0-84.7
			c34.9,0,69.7,0,104.6,0c0,28.2,0,56.3,0,84.6c2.7,0,5.3,0,8,0c0,1.3,0,2.5,0,3.8c-15.9,0-31.7,0-47.9,0
			c4.8,10.4,9.6,20.5,14.3,30.7c-1.1,0.5-2.2,1-3.3,1.6c-0.2-0.4-0.5-0.8-0.7-1.2c-2.6-5.5-5.1-10.9-7.7-16.4
			c-0.4-0.9-0.9-1.3-2-1.3c-8.8,0-17.6,0-26.3,0c-1.1,0-1.6,0.4-2,1.3c-2.7,5.8-5.4,11.6-8.2,17.6c-1.1-0.5-2.2-1-3.4-1.6
			c4.8-10.2,9.5-20.3,14.3-30.7c-16.1,0-31.9,0-47.8,0c0-1.3,0-2.4,0-3.8C2.8,85,5.4,85,8.3,85z M109,4.1c-32.3,0-64.5,0-96.8,0
			c0,27,0,53.8,0,80.7c32.3,0,64.6,0,96.8,0C109,57.8,109,31,109,4.1z M73.3,98.3c-1.5-3.2-2.8-6.1-4.2-9c-0.2-0.3-0.8-0.5-1.2-0.5
			c-4.8,0-9.6-0.1-14.4,0c-0.5,0-1.2,0.5-1.5,0.9c-1,1.8-1.8,3.7-2.7,5.6c-0.4,0.9-0.8,1.9-1.3,3C56.5,98.3,64.7,98.3,73.3,98.3z"/>
		<path fill="#42D69D" stroke="" stroke-width="0.6" stroke-miterlimit="10" d="M96.2,19.5c0,1.2,0,2.2,0,3.5
			c-17.8,0-35.7,0-53.7,0c0-1.1,0-2.2,0-3.5C60.4,19.5,78.3,19.5,96.2,19.5z"/>
		<path fill="#42D69D" stroke="" stroke-width="0.6" stroke-miterlimit="10" d="M42.5,38.4c0-1.2,0-2.3,0-3.5
			c17.9,0,35.8,0,53.7,0c0,1.2,0,2.3,0,3.5C78.4,38.4,60.5,38.4,42.5,38.4z"/>
		<path fill="#42D69D" stroke="" stroke-width="0.6" stroke-miterlimit="10" d="M96.2,50.4c0,1.2,0,2.3,0,3.5
			c-17.8,0-35.7,0-53.7,0c0-1.1,0-2.2,0-3.5C60.4,50.4,78.3,50.4,96.2,50.4z"/>
		<path fill="#42D69D" stroke="" stroke-width="0.6" stroke-miterlimit="10" d="M42.5,69.3c0-1.2,0-2.3,0-3.5
			c17.9,0,35.8,0,53.7,0c0,1.2,0,2.3,0,3.5C78.4,69.3,60.5,69.3,42.5,69.3z"/>
		<path fill="#42D69D" stroke="" stroke-width="0.6" stroke-miterlimit="10" d="M36.5,52.3c0,3.3-2.7,5.8-5.9,5.7
			c-3.1-0.1-5.7-2.7-5.7-5.9c0-3.2,2.8-5.9,5.9-5.8C34,46.4,36.5,49,36.5,52.3z M32.7,52.4c0-1.3-0.6-2.1-1.8-2.2
			c-1.2-0.1-2,0.5-2.2,1.7c-0.2,1.2,0.7,2.3,1.9,2.3C31.8,54.2,32.5,53.6,32.7,52.4z"/>
		<path fill="#42D69D" stroke="" stroke-width="0.6" stroke-miterlimit="10" d="M36.5,21.3c0,3.2-2.5,5.7-5.7,5.8
			c-3.3,0-6-2.6-5.9-5.8c0-3.3,2.7-5.9,5.8-5.9C33.9,15.4,36.5,18,36.5,21.3z M30.6,23.3c1.2-0.1,2-0.7,2.1-1.9
			c0.1-1.2-0.8-2.2-2-2.2c-1.2,0.1-2,0.7-2,2C28.6,22.5,29.4,23.1,30.6,23.3z"/>
		<path fill="#42D69D" stroke="" stroke-width="0.6" stroke-miterlimit="10" d="M36.5,67.6c0,3.3-2.5,5.9-5.8,5.9
			c-3.2,0-5.9-2.6-5.8-5.9c0-3.2,2.7-5.8,5.9-5.8C34,61.8,36.5,64.4,36.5,67.6z M32.7,67.7c-0.1-1.2-0.7-2-2-2c-1.3,0-2,0.6-2.1,1.9
			c-0.1,1.2,0.9,2.2,2,2.2C31.9,69.6,32.6,68.9,32.7,67.7z"/>
		<path fill="#42D69D" stroke="" stroke-width="0.6" stroke-miterlimit="10" d="M36.5,36.8c0,3.3-2.6,5.8-5.9,5.8
			c-3.2,0-5.7-2.6-5.7-5.8c0-3.2,2.7-5.9,5.9-5.9C33.9,30.8,36.5,33.5,36.5,36.8z M32.7,36.9c0-1.3-0.6-2.1-1.8-2.2
			c-1.2-0.1-2,0.5-2.2,1.7c-0.2,1.2,0.7,2.3,1.9,2.3C31.8,38.8,32.5,38.1,32.7,36.9z"/>
	</g>
</g>
</svg>
