<?xml version="1.0" encoding="utf-8"?>
<!-- Generator: Adobe Illustrator 17.1.0, SVG Export Plug-In . SVG Version: 6.00 Build 0)  -->
<!DOCTYPE svg PUBLIC "-//W3C//DTD SVG 1.1//EN" "http://www.w3.org/Graphics/SVG/1.1/DTD/svg11.dtd">
<svg version="1.1" xmlns="http://www.w3.org/2000/svg" xmlns:xlink="http://www.w3.org/1999/xlink" x="0px" y="0px"
	 viewBox="0 0 50 50" enable-background="new 0 0 50 50" xml:space="preserve">
<g id="Layer_1" display="none">
	<g id="Menu" display="inline">
	</g>
</g>
<g id="Layer_3">
	<g>
		<circle fill="#30417E" cx="25" cy="25" r="25"/>
		<g>
			<path fill="#FFFFFF" d="M13.7,24.5c0.2-0.4,0.5-0.8,0.7-1.3c0.8-1.3,1.5-2.8,2.4-4c1.7-2.4,3.7-3.7,7-3.5
				c4.1,0.3,8.3,0.1,12.5,0.1c-0.1,1.3-0.4,2-1.8,1.9c-4.2-0.1-8.4-0.1-12.5,0c-0.7,0-1.3,0.3-2,0.5c0,0.2,0.1,0.4,0.1,0.5
				c4.9,0,9.9,0,15,0c-0.4,1.4-0.9,2-2.3,2c-4.5-0.1-9.1,0-13.6,0c-0.6,0-1.2,0.3-1.8,0.5c0,0.2,0.1,0.4,0.1,0.6c5,0,10.1,0,15.4,0
				c-0.8,1.4-1.6,2-2.9,2c-4.1,0-8.3,0-12.4,0c-1.6,0-2,0.5-1.4,2c0.4,1,0.9,1.9,1.4,2.8c1.5,2.5,3.3,4.1,6.6,3.7
				c3.2-0.4,6.4-0.1,9.6-0.1c-0.3-3.1-2.8-5.4-5.6-5.4c-3,0-6-0.1-9.1,0c-1.3,0-1.7-0.5-1.8-1.8c4.5,0,8.9,0,13.3,0
				c0.3,0,0.6,0.1,0.8,0.3c2.5,2.3,4.5,5,5,8.7c-4.1,0-8.1-0.3-12,0.1c-4.2,0.5-6.6-1.7-8.5-4.9c-0.8-1.3-1.4-2.6-2.1-4
				C13.7,25.1,13.7,24.8,13.7,24.5z"/>
		</g>
	</g>
</g>
</svg>
