<?xml version="1.0" encoding="utf-8"?>
<!-- Generator: Adobe Illustrator 17.1.0, SVG Export Plug-In . SVG Version: 6.00 Build 0)  -->
<!DOCTYPE svg PUBLIC "-//W3C//DTD SVG 1.1//EN" "http://www.w3.org/Graphics/SVG/1.1/DTD/svg11.dtd">
<svg version="1.1" xmlns="http://www.w3.org/2000/svg" xmlns:xlink="http://www.w3.org/1999/xlink" x="0px" y="0px"
	 viewBox="0 0 50 50" enable-background="new 0 0 50 50" xml:space="preserve">
<g id="Layer_1" display="none">
	<g id="Menu" display="inline">
	</g>
</g>
<g id="Layer_3">
	<g>
		<g>
			<circle fill="#1C803C" cx="25" cy="25" r="25"/>
			<g>
				<path fill="#FFFFFF" d="M20.5,38.1c0-1.5,0-2.8,0-4c0-0.5-0.1-0.7-0.6-0.9c-3.8-1.7-6.2-4.5-7.2-8.6c-0.3-1.3-0.5-2.7-0.8-4.1
					c0.5,0,0.8,0,1.1,0c0.7,0,1.5-0.1,2.2,0c1,0.1,1.5-0.2,2-1.2c1.9-4,5.3-6.2,9.6-7c0.9-0.2,1.8-0.2,2.9-0.4c0,1.3,0,2.5,0,3.8
					c0,0.6,0.2,0.9,0.7,1.2c3.7,1.7,6,4.6,7,8.5c0.4,1.3,0.5,2.7,0.7,4.2c-1.4,0-2.7,0-3.9,0c-0.5,0-0.8,0.1-1,0.7
					c-1.5,3.2-3.8,5.5-7.2,6.7c-0.6,0.2-1.2,0.4-1.8,0.6C23,37.7,21.8,37.9,20.5,38.1z M29.7,24.9c-0.8,0-1.5,0-2.2,0
					c-0.6,0-0.8-0.2-0.7-0.8c0-2.7,0-5.4,0-8c0-0.3,0-0.5-0.1-0.8c-3.1,0.5-6.2,2.9-6.8,5.1c1.7,0,3.3,0,5,0c0,1,0,1.9,0,2.8
					c-3.2,0-6.3,0-9.4,0c0.2,2.6,2.4,5.9,5.1,6.9c0-1.7,0-3.3,0-4.9c1,0,1.9,0,2.8,0c0,3.2,0,6.2,0,9.3c2.7-0.2,6.3-2.8,6.8-5.1
					c-1.6,0-3.1,0-4.7,0c0-1,0-1.9,0-2.9c3.1,0,6.2,0,9.3,0c-0.3-2.8-2.8-6.3-5-6.7C29.7,21.6,29.7,23.2,29.7,24.9z"/>
			</g>
		</g>
	</g>
</g>
</svg>
