<?xml version="1.0" encoding="utf-8"?>
<!-- Generator: Adobe Illustrator 17.1.0, SVG Export Plug-In . SVG Version: 6.00 Build 0)  -->
<!DOCTYPE svg PUBLIC "-//W3C//DTD SVG 1.1//EN" "http://www.w3.org/Graphics/SVG/1.1/DTD/svg11.dtd">
<svg version="1.1" xmlns="http://www.w3.org/2000/svg" xmlns:xlink="http://www.w3.org/1999/xlink" x="0px" y="0px"
	 viewBox="0 0 89.6 90.2" enable-background="new 0 0 89.6 90.2" xml:space="preserve">
<g id="Layer_1" display="none">
	<g id="Menu" display="inline">
	</g>
</g>
<g id="Layer_3">
	<g>
		<path fill="#424955" stroke="#42D69D" stroke-width="0.6" stroke-miterlimit="10" d="M47,66.1c0-1.4,0.1-2.7,0-4
			c-0.1-1,0.3-1.3,1.2-1.6c3.6-1,6.1-3.3,6.7-7.1c0.6-3.8-0.9-6.7-4.2-8.7c-1.1-0.7-2.3-1.2-3.4-1.8c-1.3-0.7-2.7-1.2-4-2
			c-2.1-1.2-2.8-2.9-2.4-4.8c0.4-1.9,2-3.1,4.2-3.4c2.6-0.3,5.1,0.3,7.5,1.6c0.4-1.1,0.8-2.2,1.4-3.6c-2.3-0.6-4.5-1.2-6.7-1.8
			c0-1.4,0-3,0-4.6c-0.6,0-1.1,0-1.6,0c-0.5,0-1,0-1.5,0c0,1.1,0,2,0,2.9c0,2.1,0,2-1.9,2.7c-3.2,1.2-5.3,3.3-5.7,6.8
			c-0.4,3.3,1.1,5.8,3.9,7.4c1.4,0.8,3,1.4,4.4,2.2c1.4,0.8,3,1.5,4.2,2.5c2.7,2.3,2,6.5-1.3,7.8c-1.3,0.5-2.8,0.8-4.2,0.6
			c-2.1-0.3-4.2-1.1-6.4-1.7c-1.4,3.2-1.3,3.6,2.4,4.6c0.4,0.1,0.9,0.2,1.3,0.3c1,0.2,1.9,0.3,3,0.5c0,1.7,0,3.3,0,4.9
			C44.9,66.1,45.9,66.1,47,66.1z"/>
		<path fill="#424955" stroke="#42D69D" stroke-width="2" stroke-miterlimit="10" d="M76.3,13.7c-0.5-2.3-0.9-4.2-1.3-6.2
			c-0.5-2.2,0.7-3.8,2.7-3.6c1.3,0.1,2.1,0.8,2.3,2c1.1,5,2.2,10,3.2,15.1c0.4,2-0.8,3.3-2.8,3.3c-4.7,0-9.4,0.1-14.1,0.1
			c-2.2,0-3.5-2-2.5-3.9c0.5-1,1.4-1.4,2.5-1.4c2.4,0,4.9,0,7.7,0c-0.4-0.5-0.6-0.8-0.9-1.1c-9-8.9-19.9-12.9-32.5-11.4
			C23.9,8.5,10.7,20.7,7.2,37c-1.2,5.4-1.1,10.8,0,16.3c0.5,2.2-1.2,4-3.3,3.4c-1.1-0.3-1.7-1.2-2-2.3c-1.1-5.2-1.4-10.4-0.5-15.7
			C4,23.9,11.8,12.9,25.1,5.9c16-8.5,36.7-5.6,50,6.7C75.4,12.9,75.7,13.2,76.3,13.7z"/>
		<path fill="#424955" stroke="#42D69D" stroke-width="2" stroke-miterlimit="10" d="M14.3,77.5c0.5,2.5,1,4.6,1.4,6.7
			c0.3,1.6-0.5,2.9-2,3.3c-1.4,0.3-2.8-0.5-3.1-2.1c-1.1-5.1-2.2-10.1-3.2-15.2c-0.3-1.5,0.7-2.8,2.3-3.1c0.4-0.1,0.7-0.1,1.1-0.1
			c4.4,0,8.9-0.1,13.3-0.1c1.9,0,3.1,1.1,3.1,2.7c0,1.6-1.2,2.6-3.1,2.6c-2.4,0-4.7,0-7.1,0c0,0.1-0.1,0.2-0.1,0.3
			c1.2,1,2.4,2.2,3.6,3.1c21.4,16.6,52.7,6.8,60.9-19c2.1-6.5,2.4-13.1,0.9-19.8c-0.4-2,0.7-3.6,2.5-3.7c1.4,0,2.4,0.9,2.7,2.6
			c1.7,8.2,1.4,16.3-1.7,24.1C79.6,76.3,67.7,86,50.4,88.7c-13.2,2-24.9-1.8-35.1-10.4C15.1,78.1,14.8,77.9,14.3,77.5z"/>
	</g>
</g>
</svg>
