<?xml version="1.0" encoding="utf-8"?>
<!-- Generator: Adobe Illustrator 17.1.0, SVG Export Plug-In . SVG Version: 6.00 Build 0)  -->
<!DOCTYPE svg PUBLIC "-//W3C//DTD SVG 1.1//EN" "http://www.w3.org/Graphics/SVG/1.1/DTD/svg11.dtd">
<svg version="1.1" xmlns="http://www.w3.org/2000/svg" xmlns:xlink="http://www.w3.org/1999/xlink" x="0px" y="0px"
	 viewBox="0 0 15.7 8.9" enable-background="new 0 0 15.7 8.9" xml:space="preserve">
<g id="Layer_1" display="none">
	<g id="Menu" display="inline">
	</g>
</g>
<g id="Layer_3">
	<rect x="-714.2" y="-3644" fill="#5D5D5D" width="15551.3" height="7776.2"/>
	<rect x="-249" y="-3165.5" fill="#EAEDEF" width="1280" height="4111"/>
	<g>
		
			<image overflow="visible" opacity="0.25" width="295" height="437" xlink:href="3CF0D25B.png"  transform="matrix(1 0 0 1 -214.5123 -386.2158)">
		</image>
		<g>
			<rect x="-209" y="-380.6" fill="#FFFFFF" width="281.6" height="424.3"/>
		</g>
	</g>
	<g>
		<path fill="#B2B2B2" d="M8,8.9c-1.7,0-3.1-0.5-4.5-1.3C2.3,6.9,1.2,6,0.2,4.9c-0.3-0.4-0.3-0.6,0-1c1.3-1.4,2.8-2.6,4.7-3.4
			c2.2-0.9,4.3-0.8,6.4,0.2c1.6,0.8,3,1.8,4.2,3.2c0.3,0.3,0.3,0.6,0,0.9c-1.4,1.6-3.1,2.8-5.1,3.5C9.6,8.7,8.8,8.9,8,8.9z M7.9,1.4
			c-1.7,0-3,1.3-3,3c0,1.7,1.3,3,3,3.1c1.7,0,3-1.3,3-3C10.9,2.8,9.6,1.4,7.9,1.4z"/>
		<path fill="#B2B2B2" d="M7.9,5.4c-0.6,0-1-0.4-1-1c0-0.6,0.4-1,1-1c0.6,0,1,0.4,1,1C8.9,5,8.4,5.4,7.9,5.4z"/>
	</g>
	<g>
		<defs>
			<rect id="SVGID_23_" x="-209" y="68.7" width="600" height="393.7"/>
		</defs>
		<use xlink:href="#SVGID_23_"  overflow="visible" fill="#424955"/>
		<clipPath id="SVGID_2_">
			<use xlink:href="#SVGID_23_"  overflow="visible"/>
		</clipPath>
		<g transform="matrix(1 0 0 1 -1.525879e-005 0)" clip-path="url(#SVGID_2_)">
			
				<image overflow="visible" width="1570" height="1275" id="T3C8dU_1_" xlink:href="3CF0D259.jpg"  transform="matrix(0.3941 0 0 0.3941 -220.5006 -33.425)">
			</image>
		</g>
	</g>
</g>
</svg>
