<?xml version="1.0" encoding="utf-8"?>
<!-- Generator: Adobe Illustrator 17.1.0, SVG Export Plug-In . SVG Version: 6.00 Build 0)  -->
<!DOCTYPE svg PUBLIC "-//W3C//DTD SVG 1.1//EN" "http://www.w3.org/Graphics/SVG/1.1/DTD/svg11.dtd">
<svg version="1.1" xmlns="http://www.w3.org/2000/svg" xmlns:xlink="http://www.w3.org/1999/xlink" x="0px" y="0px"
	 viewBox="0 0 25 15.9" enable-background="new 0 0 25 15.9" xml:space="preserve">
<g id="Layer_1" display="none">
	<g id="Menu" display="inline">
	</g>
</g>
<g id="Layer_3">
	<g>
		<g>
			<path fill="#FFFFFF" d="M0,7.6C0.1,3.5,3.9-0.1,7.9,0c2-0.1,3.8,0.8,5.3,2c-0.6,0.7-1.3,1.4-2,2.1C9.4,2.8,6.9,2.5,5.1,3.9
				c-2.6,1.8-2.7,6-0.2,7.9c2.4,2.2,7,1.1,7.7-2.3c-1.5,0-3,0-4.5,0c0-0.9,0-1.8,0-2.7c2.5,0,5.1,0,7.6,0c0.2,2.1-0.1,4.4-1.4,6.1
				c-2,2.8-5.9,3.6-9,2.4C2,14.2-0.2,10.9,0,7.6z"/>
			<path fill="#FFFFFF" d="M20.5,4.5c0.8,0,1.5,0,2.3,0c0,0.8,0,1.5,0,2.3c0.8,0,1.5,0,2.3,0c0,0.8,0,1.5,0,2.3c-0.8,0-1.5,0-2.3,0
				c0,0.8,0,1.5,0,2.3c-0.8,0-1.5,0-2.3,0c0-0.8,0-1.5,0-2.3c-0.8,0-1.5,0-2.3,0c0-0.8,0-1.5,0-2.3c0.8,0,1.5,0,2.3,0
				C20.5,6,20.5,5.3,20.5,4.5z"/>
		</g>
	</g>
	<g id="Menu_1_">
	</g>
</g>
</svg>
