<?xml version="1.0" encoding="utf-8"?>
<!-- Generator: Adobe Illustrator 17.1.0, SVG Export Plug-In . SVG Version: 6.00 Build 0)  -->
<!DOCTYPE svg PUBLIC "-//W3C//DTD SVG 1.1//EN" "http://www.w3.org/Graphics/SVG/1.1/DTD/svg11.dtd">
<svg version="1.1" xmlns="http://www.w3.org/2000/svg" xmlns:xlink="http://www.w3.org/1999/xlink" x="0px" y="0px"
	 viewBox="0 0 124.5 107.8" enable-background="new 0 0 124.5 107.8" xml:space="preserve">
<g id="Layer_1" display="none">
	<g id="Menu" display="inline">
	</g>
</g>
<g id="Layer_3">
	<rect x="-3622.3" y="-70.2" fill="none" width="15551.3" height="7776.2"/>
	<g>
		<path fill="#4D81EF" stroke="" stroke-width="0.6" stroke-miterlimit="10" d="M106.5,66.8c2,2.7,3.1,5.4,2.6,8.7
			c-0.6,4.1-3.4,6.9-7.6,7.2c-1.2,0.1-1.7,0.4-2,1.6c-1,3.6-3.6,5.8-7.1,6.7c-1,0.3-1.6,0.8-2,1.8c-1.3,3.4-3.8,5.5-7.1,6.9
			c-0.7,0.3-1.4,1-1.7,1.7c-1.8,4.3-5.4,6.5-9.9,5.3c-3.1-0.8-5.9-2.5-9.2-3.9c-1.2,0.8-2.9,2.1-4.8,3.1c-5.2,2.9-10.7,2.2-14.8-2.2
			C36.4,96.5,29.4,89.8,22.6,83c-3.9-3.9-4.3-7.4-1.2-12c1.1-1.7,2.6-3.2,4-4.9c-3.5-4.6-7.1-9.4-10.7-14.1
			c-1.4,0.5-2.7,1.1-4.1,1.3C6.4,54,3.1,51,1.2,47.4c-1.7-3.1-0.8-6.5,2-9.4C14.9,26.3,26.6,14.6,38.3,2.9c3.5-3.5,7.9-3.4,11.5-0.2
			c3,2.8,4.6,5.8,3,9.9c-0.1,0.3,0.1,0.9,0.4,1.1c3.3,3.5,6.7,6.9,10.1,10.4c3.7-2.4,7.5-5,11.5-7.6c-0.5-0.6-1-1.1-1.4-1.6
			c-3-3.2-3-7.4-0.2-10.7c2-2.3,4.2-4.2,7.6-4c2.1,0.1,3.9,1,5.3,2.4c11.9,11.9,23.7,23.7,35.6,35.7c3.4,3.4,3.3,7.9,0,11.4
			c-2.9,3-3.7,3.4-8.6,3.7C112.8,58.8,110.4,63.1,106.5,66.8z M17.5,49c4.9,7.9,19.9,26.3,27.4,32.9c7.3,6.4,15,12.4,22.5,18.6
			c2,1.6,4.4,2.5,7,2.4c1.9-0.1,3-1.3,3.7-2.9c0.7-1.5-0.7-2-1.4-2.8c-5.7-5.8-11.5-11.5-17.3-17.3c-0.8-0.8-1.6-1.4-2.3-2
			c1.1-1.2,2-2.1,3.1-3.2c0.3,0.5,0.6,1,1,1.4C67,82.1,72.9,88,78.8,94c2.5,2.5,3.7,2.5,6.3,0c0.6-0.6,1-1.2,1.4-1.9
			c0.7-1.2,0.7-2.1-0.4-3.1c-5-4.9-10-9.9-15-14.9c-1.7-1.7-3.5-3.5-5.3-5.2c1-1,1.8-1.9,2.8-3c0.5,0.6,0.9,1.2,1.3,1.6
			c6.3,6.4,12.7,12.8,19.1,19.1c0.5,0.5,1.3,0.9,1.8,0.8c2.3-0.4,4-1.7,4.8-3.9c0.5-1.3,0.3-2.2-0.7-3.2
			c-5.8-5.7-11.4-11.4-17.2-17.1c-1.1-1-2.2-2-3.2-2.9c1.1-1.1,1.9-2,3-3.1c0.4,0.5,0.7,1,1.1,1.5c6.4,6.4,12.8,12.8,19.2,19.2
			c0.4,0.4,0.9,0.9,1.5,1.1c2.8,0.7,5.5-1.3,5.7-4.2c0.2-2.8-1.2-4.8-3.1-6.6c-6-5.6-12-11.2-17.9-16.8c-1.3-1.2-2.6-2.4-3.8-3.5
			c-4.5,2.6-8.5,2.9-14.1,1.1c-1.3-0.4-2-0.2-3,0.7c-5.4,4.8-11.6,7.2-18.9,6.3c-4.3-0.6-6.4-3.9-5.4-8.1c1-4.1,3.2-7.5,6.4-10.2
			c4.2-3.5,8.6-6.6,12.9-9.9c0.4-0.3,0.9-0.7,1.6-1.2c-3.3-3.5-6.6-6.9-9.7-10.2C39.2,27.3,28.4,38.1,17.5,49z M103.6,64.1
			c2.7-2.4,4.6-5.1,5.3-8.5c0.5-2.6,0.5-5.1-2-7c-1.5-1.2-2.8-2.7-4.2-4.1c-8-8-16-16-23.9-23.9c-0.5-0.5-0.9-1.4-2-0.6
			c-9.5,6.7-19,13.3-28.4,20.1c-2.5,1.8-4.2,4.5-5.2,7.5c-1.1,3.1-0.3,4.5,3.1,4.5c6.5,0.1,12-2.3,16.2-7.3c0.9-1,1.4-1.1,2.7-0.7
			c2.6,0.9,5.4,1.6,8.1,1.9c2.9,0.3,5.3-1.3,7.2-3.6C88.2,49.7,95.9,56.9,103.6,64.1z M49.5,10.3c0-2.3-2.1-5.1-4-5.8
			c-1.9-0.7-3.3,0-4.6,1.3c-4.6,4.7-9.3,9.3-14,14c-7,7.1-14.1,14.1-21.1,21.2c-1.6,1.6-2,3.2-1.2,4.8c0.5,0.9,1.3,1.6,2,2.3
			c2,2,4.1,2.1,6,0.1c11.8-11.8,23.7-23.7,35.4-35.5C48.8,11.9,49.2,10.8,49.5,10.3z M80.8,4.1c-2.9,0.4-4.4,2.1-5.4,4.1
			c-1,1.8-0.1,3.4,1.3,4.7c7.8,7.8,15.5,15.6,23.3,23.4c3.9,3.9,7.8,7.9,11.8,11.8c2.1,2,4.1,2,6.1,0c0.3-0.3,0.7-0.6,1-1
			c1.9-1.9,1.9-4,0.1-5.9C107.1,29.3,95.2,17.4,83.3,5.5C82.5,4.8,81.4,4.4,80.8,4.1z M30.4,85c2,1.9,4.1,3.9,5.8,5.6
			c1.9-1.7,4-3.6,6.1-5.4c-2.2-2.1-4.2-4.1-6.1-5.9C34.4,81.1,32.4,83,30.4,85z M33.6,75.9c-1.8-2.1-3.7-4.3-5.8-6.8
			c-1.4,1.8-2.8,3.4-3.8,5.2c-1.3,2.1-0.9,3.6,0.8,5.4c0.8,0.9,1.6,1.8,2.3,2.6C29.4,80,31.4,78,33.6,75.9z M44.4,99
			c1.9-2.1,4-4.3,6.2-6.6c-1.6-1.4-3.5-3-5.3-4.6c-2.1,2.1-4.1,4.2-6.1,6.1C40.9,95.5,42.6,97.1,44.4,99z M47.3,102.1
			c3.1,2.8,8.3,1.8,12.4-2.5c-1.9-1.5-3.7-2.9-5.6-4.4C51.8,97.6,49.5,99.9,47.3,102.1z"/>
	</g>
</g>
</svg>
