<?xml version="1.0" encoding="utf-8"?>
<!-- Generator: Adobe Illustrator 17.1.0, SVG Export Plug-In . SVG Version: 6.00 Build 0)  -->
<!DOCTYPE svg PUBLIC "-//W3C//DTD SVG 1.1//EN" "http://www.w3.org/Graphics/SVG/1.1/DTD/svg11.dtd">
<svg version="1.1" xmlns="http://www.w3.org/2000/svg" xmlns:xlink="http://www.w3.org/1999/xlink" x="0px" y="0px"
	 viewBox="0 0 138.4 106.3" enable-background="new 0 0 138.4 106.3" xml:space="preserve">
<g id="Layer_1" display="none">
	<g id="Menu" display="inline">
	</g>
</g>
<g id="Layer_3">
	<rect x="-645" y="-4176.5" fill="none" width="15551.3" height="7776.2"/>
	<rect x="-179.8" y="-3697.9" fill="none" width="1280" height="4111"/>
	<g>
		<rect x="-139.8" y="-44.6" fill="none" width="383.7" height="411.3"/>
	</g>
	<path fill="#42D69D" stroke="" stroke-miterlimit="10" d="M57.6,54.8c-2.1,4.1-4.2,8-6.1,11.9c0.2,0.3,0.2,0.4,0.3,0.5
		c3.4,2,3.5,2.1,1.7,5.6c-0.9,1.9-1.9,3.7-2.9,5.6c-1.2,2.4-2,2.7-4.4,1.4c-8.7-4.5-17.5-9-26.2-13.6c-2.3-1.2-4.5-2.3-6.8-3.5
		c-2.1-1.1-2.4-2-1.4-4.1c1.1-2.2,2.3-4.4,3.4-6.6c1.2-2.3,1.9-2.6,4.4-1.4c0.3,0.2,0.7,0.3,1.2,0.5C27.2,39,33.4,26.9,39.7,14.8
		c-0.5-0.3-0.9-0.6-1.3-0.9c-1.2-0.8-1.6-1.8-0.9-3.1c1.5-3,2.9-5.9,4.4-8.9c0.9-1.7,2-1.9,4-0.8c8.9,4.9,17.8,9.8,26.7,14.7
		c1.9,1,3.8,2.1,5.7,3.1c1.8,1,2,2,1.1,3.8c-1.1,2.2-2.2,4.3-3.3,6.4c-1.5,2.8-2,2.9-4.8,1.6c-0.3-0.1-0.6-0.2-1-0.4
		c-2.1,4-4.1,7.9-6.2,12c0.7,0.4,1.2,0.8,1.8,1.1c23.3,12.2,46.5,24.5,69.8,36.7c2.6,1.3,2.8,2.1,1.5,4.7c-1.2,2.3-2.3,4.7-3.5,7
		c-1.3,2.7-2.2,2.9-4.8,1.5c-20-10.8-39.9-21.7-59.9-32.5C65.2,58.9,61.5,56.9,57.6,54.8z M47.3,64.8c6.3-12.2,12.6-24.3,18.9-36.5
		c-7.5-3.9-14.9-7.7-22.4-11.5c-6.3,12.3-12.6,24.3-18.8,36.5C32.5,57.2,39.8,61,47.3,64.8z M132.5,83.9
		C109,71.5,85.6,59.2,62.1,46.8c-0.8,1.5-1.4,2.7-2.1,4.1c23.4,12.7,46.7,25.3,70,38C130.9,87.1,131.7,85.6,132.5,83.9z M74.5,22.2
		C64.7,16.8,54.9,11.4,45,6c-0.9,1.7-1.7,3.3-2.5,4.9c10,5.2,19.9,10.3,29.8,15.4C73.1,24.8,73.8,23.6,74.5,22.2z M16.7,59.4
		C26.9,64.7,37,69.9,47.1,75.1c0.7-1.5,1.4-2.7,2-4c-10.2-5.3-20.3-10.5-30.5-15.8C18,56.7,17.4,58,16.7,59.4z"/>
	<path fill="#42D69D" stroke="" stroke-miterlimit="10" d="M12,92.1c0-2.3,0-4.4,0-6.5c0-1.9,0.8-2.7,2.7-2.7
		c11.9,0,23.9,0,35.8,0c1.8,0,2.7,0.9,2.7,2.7c0,2.1,0,4.2,0,6.4c1,0.2,2,0.5,2.9,0.7c4.6,1.4,7.4,4.4,8.4,9.2
		c0.5,2.7-0.4,3.8-3.1,3.8c-19.2,0-38.4,0-57.6,0c-2.7,0-3.6-1.1-3.2-3.8c0.9-4.9,4.4-8.4,9.5-9.5C10.7,92.4,11.2,92.3,12,92.1z
		 M5.7,101.1c18,0,35.8,0,53.5,0c0.1-0.2,0.2-0.4,0.3-0.6c-1.3-1-2.5-2.3-4-2.9c-1.6-0.6-3.4-0.9-5.2-0.9c-9.1-0.1-18.2,0-27.2,0
		c-3.3,0-6.6-0.1-9.9,0.1C10.1,96.8,7.4,97.8,5.7,101.1z M48.5,87.6c-10.7,0-21.3,0-31.9,0c0,1.5,0,2.9,0,4.3c10.7,0,21.2,0,31.9,0
		C48.5,90.5,48.5,89.1,48.5,87.6z"/>
</g>
</svg>
