<?xml version="1.0" encoding="utf-8"?>
<!-- Generator: Adobe Illustrator 17.1.0, SVG Export Plug-In . SVG Version: 6.00 Build 0)  -->
<!DOCTYPE svg PUBLIC "-//W3C//DTD SVG 1.1//EN" "http://www.w3.org/Graphics/SVG/1.1/DTD/svg11.dtd">
<svg version="1.1" xmlns="http://www.w3.org/2000/svg" xmlns:xlink="http://www.w3.org/1999/xlink" x="0px" y="0px"
	 viewBox="0 0 17.8 17.8" enable-background="new 0 0 17.8 17.8" xml:space="preserve">
<g id="Layer_1" display="none">
	<g id="Menu" display="inline">
	</g>
</g>
<g id="Layer_3">
	<g>
		<path class="fill" d="M13.5,8.9c0,2.5-2,4.6-4.6,4.6c-2.5,0-4.6-2.1-4.6-4.6c0-2.5,2.1-4.6,4.6-4.6C11.4,4.3,13.5,6.4,13.5,8.9z
			 M5.9,8.9c0,1.6,1.3,3,2.9,3c1.7,0,3-1.3,3-2.9c0-1.7-1.3-3-3-3C7.3,5.9,5.9,7.3,5.9,8.9z"/>
		<g>
			<path class="fill" d="M0,11.9c0-2,0-3.9,0-5.9c0-0.1,0-0.1,0-0.2c0-0.7,0.1-1.4,0.2-2C0.6,2.2,1.5,1.1,3,0.5
				C3.7,0.2,4.6,0.1,5.4,0C5.6,0,5.8,0,6,0c2,0,3.9,0,5.9,0C11.9,0,12,0,12,0c0.6,0,1.1,0,1.7,0.2c2,0.4,3.3,1.6,3.9,3.6
				c0.2,0.9,0.2,1.8,0.2,2.7c0,1.7,0,3.5,0,5.2c0,0.7,0,1.4-0.2,2c-0.4,2-1.6,3.3-3.6,3.8c-0.9,0.2-1.8,0.2-2.7,0.2
				c-1.9,0-3.7,0-5.6,0c-0.7,0-1.4,0-2.1-0.2c-1.5-0.4-2.6-1.2-3.2-2.7c-0.4-0.8-0.5-1.7-0.5-2.5C0,12.2,0,12,0,11.9z M16.2,8.9
				C16.2,8.9,16.2,8.9,16.2,8.9c0-0.7,0-1.5,0-2.2c0-0.7,0-1.4-0.1-2.1c-0.1-0.7-0.3-1.3-0.8-1.8c-0.6-0.7-1.5-1-2.4-1.1
				c-1.1-0.1-2.1-0.1-3.2-0.1c-1,0-2.1,0-3.1,0c-0.7,0-1.4,0-2.1,0.1C3.9,1.8,3.3,2,2.8,2.5C1.9,3.3,1.5,4.2,1.7,4.9
				C1.9,5.9,1.6,7,1.6,8c0,1,0,2.1,0,3.1c0,0.7,0,1.4,0.1,2.1c0.1,0.7,0.3,1.3,0.8,1.8c0.6,0.7,1.5,1,2.4,1.1
				C5.9,16.2,7,16.2,8,16.2c1,0,2.1,0,3.1,0c0.8,0,1.5,0,2.3-0.2c1.3-0.2,2.2-1,2.5-2.2c0.1-0.4,0.2-0.9,0.2-1.3
				C16.2,11.3,16.2,10.1,16.2,8.9z"/>
			<g>
				<path class="fill" d="M14.7,4.2c0,0.6-0.5,1.1-1.1,1.1c-0.6,0-1.1-0.5-1.1-1.1c0-0.6,0.5-1.1,1.1-1.1
					C14.3,3.1,14.7,3.6,14.7,4.2z"/>
			</g>
		</g>
	</g>
	<g id="Menu_1_">
	</g>
</g>
</svg>
