<?xml version="1.0" encoding="utf-8"?>
<!-- Generator: Adobe Illustrator 17.1.0, SVG Export Plug-In . SVG Version: 6.00 Build 0)  -->
<!DOCTYPE svg PUBLIC "-//W3C//DTD SVG 1.1//EN" "http://www.w3.org/Graphics/SVG/1.1/DTD/svg11.dtd">
<svg version="1.1" xmlns="http://www.w3.org/2000/svg" xmlns:xlink="http://www.w3.org/1999/xlink" x="0px" y="0px"
	 viewBox="0 0 16.7 16" enable-background="new 0 0 16.7 16" xml:space="preserve">
<g id="Layer_1" display="none">
	<g id="Menu" display="inline">
	</g>
</g>
<g id="Layer_3">
	<path fill="#E6E6E6" d="M16.7,6.1c-0.7,0.5-1.5,1.1-2.2,1.6c-0.9,0.7-1.8,1.3-2.7,2c-0.1,0.1-0.2,0.2-0.1,0.4
		c0.6,1.9,1.2,3.8,1.8,5.7c0,0.1,0,0.1,0.1,0.2c-0.1-0.1-0.2-0.1-0.3-0.2c-1.6-1.2-3.2-2.3-4.8-3.5c-0.1-0.1-0.2-0.1-0.4,0
		c-1.6,1.2-3.2,2.3-4.7,3.4c-0.1,0.1-0.1,0.1-0.3,0.2c0.1-0.4,0.3-0.8,0.4-1.2c0.5-1.6,1-3.1,1.5-4.7c0.1-0.2,0-0.3-0.1-0.4
		C3.4,8.6,1.8,7.4,0.2,6.3C0.2,6.2,0.1,6.2,0,6.1c0.1,0,0.2,0,0.3,0c2,0,3.9,0,5.9,0c0.2,0,0.3,0,0.3-0.2C7.1,4,7.7,2.1,8.3,0.3
		c0-0.1,0.1-0.1,0.1-0.3c0.1,0.1,0.1,0.2,0.1,0.3C9.1,2.2,9.7,4,10.3,5.9c0.1,0.2,0.1,0.2,0.3,0.2c2,0,3.9,0,5.9,0
		C16.6,6.1,16.6,6.1,16.7,6.1C16.7,6.1,16.7,6.1,16.7,6.1z"/>
</g>
</svg>
