<?xml version="1.0" encoding="utf-8"?>
<!-- Generator: Adobe Illustrator 17.1.0, SVG Export Plug-In . SVG Version: 6.00 Build 0)  -->
<!DOCTYPE svg PUBLIC "-//W3C//DTD SVG 1.1//EN" "http://www.w3.org/Graphics/SVG/1.1/DTD/svg11.dtd">
<svg version="1.1" xmlns="http://www.w3.org/2000/svg" xmlns:xlink="http://www.w3.org/1999/xlink" x="0px" y="0px"
	 viewBox="0 0 133.3 128.5" enable-background="new 0 0 133.3 128.5" xml:space="preserve">
<g id="Layer_1" display="none">
	<g id="Menu" display="inline">
	</g>
</g>
<g id="Layer_3">
	<rect x="-4712.6" y="-70.8" fill="none" width="15551.3" height="7776.2"/>
	<g>
		<path fill="#42D69D" stroke="" stroke-miterlimit="10" d="M87.1,59.8c0,1.1,0,1.9,0,2.7c0,16,0,32,0,48c0,3.5-0.5,4-3.9,4
			c-15.9,0-31.9,0-47.8,0c-1.5,0-2.5,0.4-3.6,1.3c-4.3,3.8-8.7,7.5-13.1,11.1c-0.8,0.6-2.3,1.2-3,0.8c-0.8-0.5-1.4-1.9-1.4-3
			c-0.2-3.4-0.1-6.7-0.1-10.3c-3.5,0-6.8,0-10,0c-2.9,0-3.6-0.6-3.6-3.6c0-17.4,0-34.7,0-52.1c0-3.1,0.6-3.7,3.7-3.7
			c13.1,0,26.2,0,39.3,0c0.8,0,1.6,0,2.6,0c0-1,0-1.8,0-2.6c0-16.1,0-32.3,0-48.4c0-3.2,0.5-3.7,3.8-3.7c26.3,0,52.7,0,79,0
			c3.3,0,3.9,0.6,3.9,3.9c0,17.2,0,34.3,0,51.5c0,3.3-0.6,3.9-3.9,3.9c-3.2,0-6.3,0-9.8,0c0,2.9,0,5.8,0,8.7c0,0.7,0.2,1.5,0,2.2
			c-0.3,0.9-0.7,2.1-1.4,2.4c-0.7,0.3-2,0-2.7-0.6c-3.6-2.9-7.2-5.7-10.5-8.9c-3-3-6.2-4.4-10.4-3.8C91.9,60.1,89.6,59.8,87.1,59.8z
			 M18.7,121c4-3.4,7.5-6.3,11-9.4c1.4-1.2,2.8-1.7,4.6-1.7c15.2,0,30.4,0,45.6,0c0.9,0,1.7,0,2.6,0c0-16.8,0-33.4,0-50
			C56.7,60,31,60,5.2,60c0,16.7,0,33.3,0,50c3.4,0,6.7,0,10,0c2.9,0,3.4,0.6,3.5,3.5C18.8,115.8,18.7,118.1,18.7,121z M128.1,5.2
			c-25.9,0-51.6,0-77.3,0c0,16.7,0,33.3,0,50c1,0,1.9,0,2.8,0c15.2,0,30.4,0,45.6,0c1.6,0,3,0.4,4.2,1.5c3.2,2.8,6.5,5.5,9.7,8.3
			c0.4,0.3,0.8,0.6,1.5,1c0-1.9,0-3.4,0-4.9c0-5.9,0-5.9,5.9-5.9c2.5,0,5.1,0,7.7,0C128.1,38.4,128.1,21.9,128.1,5.2z"/>
		<path fill="#42D69D" stroke="" stroke-miterlimit="10" d="M46.1,101.3c0,0.7,0.3,1.6-0.1,2c-0.6,0.8-1.5,1.8-2.3,1.9
			c-0.6,0.1-2-1.3-1.9-2c0-1.8-0.9-2.3-2.3-2.9c-3.4-1.4-5.4-4-5.8-7.7c-0.2-1.5,0.3-2.8,2-2.9c1.5-0.2,2.4,0.7,2.5,2.2
			c0.2,4.3,5.8,6.2,9.4,3.6c3-2.2,2.6-6.3-0.9-7.8c-1-0.4-2.1-0.6-3.1-0.7c-5.1-0.4-9.1-3.6-9.8-8.1c-0.7-4.4,2.1-8.3,7.2-10.1
			c0.2-0.1,0.4-0.2,0.6-0.3c0.3-1.7-0.4-4.3,2.5-4.2c2.5,0.1,2.1,2.4,2.2,3.7c1.9,1.2,4,2.1,5.3,3.6c1.3,1.4,1.9,3.5,2.5,5.3
			c0.5,1.5-0.2,2.8-1.9,3c-1.6,0.2-2.3-0.8-2.6-2.2c-0.9-4.4-5.7-6.3-9.3-3.7c-3,2.2-2.6,6.3,0.9,7.8c0.9,0.4,1.9,0.6,2.9,0.7
			c5.4,0.3,9.3,3.6,10,8.3c0.6,4.5-2.2,8.2-7.4,10C46.5,100.9,46.4,101,46.1,101.3z"/>
		<path fill="#42D69D" stroke="" stroke-miterlimit="10" d="M92.8,18.7c0.6,1.5,1.1,2.8,1.7,3.9c0.2,0.4,1,0.6,1.5,0.7
			c1.5,0.1,3.1,0,4.8,0c0,1.5,0,2.9,0,4.5c-1.6,0-3.2-0.1-4.8,0c-0.5,0-1.4,0.3-1.5,0.6c-1.3,4.3-4.3,6.9-8.6,8.1
			c3.6,3.6,7,7.1,10.4,10.5c-1.1,1.1-2.1,2.1-3.2,3.2c-4.7-4.5-9.6-9.3-14.5-14c-0.1,0.1-0.3,0.3-0.4,0.4c0-1.3,0-2.7,0-4.2
			c4.2-0.5,9.3,1.1,11.8-4.6c-4,0-7.8,0-11.7,0c0-1.6,0-2.9,0-4.5c3.8,0,7.6,0,11.6,0c-0.7-2.7-2.5-4-4.8-4.4
			c-2.2-0.4-4.4-0.3-6.8-0.5c0-1.4,0-2.8,0-4.3c7.5,0,14.9,0,22.5,0c0,1.4,0,2.8,0,4.5C98.1,18.7,95.5,18.7,92.8,18.7z"/>
	</g>
</g>
</svg>
