<?xml version="1.0" encoding="utf-8"?>
<!-- Generator: Adobe Illustrator 17.1.0, SVG Export Plug-In . SVG Version: 6.00 Build 0)  -->
<!DOCTYPE svg PUBLIC "-//W3C//DTD SVG 1.1//EN" "http://www.w3.org/Graphics/SVG/1.1/DTD/svg11.dtd">
<svg version="1.1" xmlns="http://www.w3.org/2000/svg" xmlns:xlink="http://www.w3.org/1999/xlink" x="0px" y="0px"
	 viewBox="0 0 196.1 138.4" enable-background="new 0 0 196.1 138.4" xml:space="preserve">
<g id="Layer_1" display="none">
	<g id="Menu" display="inline">
	</g>
</g>
<g id="Layer_3">
	<g>
		<g>
			<g>
				<path fill="#4D81EF" stroke="#424955" stroke-width="1.8" stroke-miterlimit="10" d="M49.8,13.4c2.2-3.3,5.2-5.2,8.9-5.8
					c5.6-1,11.1,1.8,13.6,6.9c2.5,5.1,1.5,10.7-2.8,14.6c-1.9,1.7-4,3.3-5.9,5.3c2.1-0.9,4.3-1.6,6.2-2.7c3.2-1.9,6.2-4,9.2-6.3
					c1.3-1,2.4-1.6,4-1.5c1.3,0.1,2.6,0,4.3,0c-7,8.2-15.4,13.4-25.4,16.3c12.2,0,24.4,0,36.7,0c0,29.3,0,58.5,0,87.9
					c-32.5,0-65,0-97.7,0c0-29.2,0-58.4,0-87.7c12.2,0,24.5,0,36.7,0c-10-3-18.4-8.2-25.5-16.4c2.4,0,4.4-0.1,6.4,0
					c0.5,0,1,0.6,1.5,1c4.7,4.2,9.9,7.4,16.1,9.1c-0.6-0.4-1.2-0.9-1.7-1.3c-0.6-0.5-1.2-0.9-1.8-1.4c-2.7-2.2-5.4-4.4-6.3-8
					c-1.4-5.6,1.1-11.5,6.2-14.3c5.1-2.8,11.8-1.7,15.7,2.6C48.7,12.1,49.1,12.7,49.8,13.4z M5.9,122.9c13.8,0,27.5,0,41.2,0
					c0-16.7,0-33.3,0-50c-13.8,0-27.4,0-41.2,0C5.9,89.6,5.9,106.2,5.9,122.9z M52.4,72.9c0,16.8,0,33.5,0,50.1
					c13.8,0,27.4,0,41.1,0c0-16.7,0-33.4,0-50.1C79.8,72.9,66.2,72.9,52.4,72.9z M5.9,67.6c13.8,0,27.5,0,41.2,0
					c0-7.5,0-14.9,0-22.3c-13.8,0-27.4,0-41.2,0C5.9,52.8,5.9,60.1,5.9,67.6z M52.4,45.3c0,7.5,0,14.9,0,22.3c13.8,0,27.5,0,41.2,0
					c0-7.5,0-14.8,0-22.3C79.9,45.3,66.2,45.3,52.4,45.3z M52,34.7c0.3,0.2,0.6,0.4,0.9,0.5c4.4-3.1,8.8-6,13-9.4
					c2.8-2.2,3.3-5.6,1.9-8.7c-1.5-3.2-4.6-4.9-8.2-4.5c-3.3,0.4-6.1,2.7-6.5,6.2C52.5,24.1,52.3,29.4,52,34.7z M46.8,34.9
					c0.2-0.1,0.5-0.2,0.7-0.3c-0.4-5.5-0.6-11-1.3-16.4c-0.3-3-3.3-5.3-6.4-5.6c-3.5-0.4-6.6,1.3-8.1,4.4c-1.4,2.9-1,6.2,1.2,8.4
					C37.1,29.3,42,32.1,46.8,34.9z"/>
			</g>
		</g>
		<g>


				<line fill="#4d81ef" stroke="#4D81EF" stroke-width="3" stroke-linecap="round" stroke-linejoin="round" stroke-miterlimit="10" x1="179" y1="23.8" x2="150.8" y2="23.8"/>

				<line fill="#4d81ef" stroke="#4D81EF" stroke-width="3" stroke-linecap="round" stroke-linejoin="round" stroke-miterlimit="10" x1="179" y1="42" x2="150.8" y2="42"/>

				<line fill="#4d81ef" stroke="#4D81EF" stroke-width="3" stroke-linecap="round" stroke-linejoin="round" stroke-miterlimit="10" x1="179" y1="60.2" x2="150.8" y2="60.2"/>

				<line fill="#4d81ef" stroke="#4D81EF" stroke-width="3" stroke-linecap="round" stroke-linejoin="round" stroke-miterlimit="10" x1="179" y1="78.4" x2="105.3" y2="78.4"/>

				<line fill="#4d81ef" stroke="#4D81EF" stroke-width="3" stroke-linecap="round" stroke-linejoin="round" stroke-miterlimit="10" x1="179" y1="96.6" x2="105.3" y2="96.6"/>

				<line fill="#4d81ef" stroke="#4D81EF" stroke-width="3" stroke-linecap="round" stroke-linejoin="round" stroke-miterlimit="10" x1="179" y1="114.8" x2="105.3" y2="114.8"/>

				<rect x="105.3" y="23.8" fill="none" stroke="#4D81EF" stroke-width="3" stroke-linecap="round" stroke-linejoin="round" stroke-miterlimit="10" width="30.5" height="36.4"/>

				<rect x="97" y="0" fill="none" stroke="#4D81EF" stroke-width="3" stroke-linecap="round" stroke-linejoin="round" stroke-miterlimit="10" width="90" height="135"/>

		</g>
	</g>
</g>
</svg>
