<?xml version="1.0" encoding="utf-8"?>
<!-- Generator: Adobe Illustrator 17.1.0, SVG Export Plug-In . SVG Version: 6.00 Build 0)  -->
<!DOCTYPE svg PUBLIC "-//W3C//DTD SVG 1.1//EN" "http://www.w3.org/Graphics/SVG/1.1/DTD/svg11.dtd">
<svg version="1.1" xmlns="http://www.w3.org/2000/svg" xmlns:xlink="http://www.w3.org/1999/xlink" x="0px" y="0px"
	 viewBox="0 0 138.1 104.9" enable-background="new 0 0 138.1 104.9" xml:space="preserve">
<g id="Layer_1" display="none">
	<g id="Menu" display="inline">
	</g>
</g>
<g id="Layer_3">
	<rect x="-4773.3" y="-1330.2" fill="none" width="15551.3" height="7776.2"/>
	<g>
		<path fill="none" stroke="#4D81EF" stroke-width="2" stroke-linecap="round" stroke-linejoin="round" stroke-miterlimit="10" d="
			M137.1,34.2c0,25.5,0,66.4,0,66.4c0,1.8-1.5,3.3-3.3,3.3H4.3c-1.8,0-3.3-1.5-3.3-3.3c0,0,0-41.1,0-66.4"/>
		<path fill="none" stroke="#4D81EF" stroke-width="2" stroke-linecap="round" stroke-linejoin="round" stroke-miterlimit="10" d="
			M137.1,24.2H1C1,17.4,1,4.3,1,4.3C1,2.5,2.5,1,4.3,1h129.5c1.8,0,3.3,1.5,3.3,3.3C137.1,4.3,137.1,17.1,137.1,24.2z"/>

			<rect x="14.3" y="37.5" fill="none" stroke="#4D81EF" stroke-width="2" stroke-linecap="round" stroke-linejoin="round" stroke-miterlimit="10" width="43.2" height="53.1"/>

			<line fill="none" stroke="#4D81EF" stroke-width="2" stroke-linecap="round" stroke-linejoin="round" stroke-miterlimit="10" x1="74" y1="47.5" x2="123.8" y2="47.5"/>

			<line fill="none" stroke="#4D81EF" stroke-width="2" stroke-linecap="round" stroke-linejoin="round" stroke-miterlimit="10" x1="74" y1="64.1" x2="123.8" y2="64.1"/>

			<line fill="none" stroke="#4D81EF" stroke-width="2" stroke-linecap="round" stroke-linejoin="round" stroke-miterlimit="10" x1="74" y1="80.7" x2="123.8" y2="80.7"/>
		<circle fill="#4D81EF" cx="12.6" cy="12.6" r="3.3"/>
		<circle fill="#4D81EF" cx="25.9" cy="12.6" r="3.3"/>
		<circle fill="#4D81EF" cx="39.2" cy="12.6" r="3.3"/>
	</g>
</g>
</svg>
