<?xml version="1.0" encoding="utf-8"?>
<!-- Generator: Adobe Illustrator 17.1.0, SVG Export Plug-In . SVG Version: 6.00 Build 0)  -->
<!DOCTYPE svg PUBLIC "-//W3C//DTD SVG 1.1//EN" "http://www.w3.org/Graphics/SVG/1.1/DTD/svg11.dtd">
<svg version="1.1" xmlns="http://www.w3.org/2000/svg" xmlns:xlink="http://www.w3.org/1999/xlink" x="0px" y="0px"
	 viewBox="0 0 136.6 140.4" enable-background="new 0 0 136.6 140.4" xml:space="preserve">
<g id="Layer_1" display="none">
	<g id="Menu" display="inline">
	</g>
</g>
<g id="Layer_3">
	<rect x="-1445.1" y="-4198.1" fill="#5D5D5D" width="15551.3" height="7776.2"/>
	<rect x="-979.9" y="-3719.6" fill="#EAEDEF" width="1280" height="4111"/>
	<g>
		<rect x="-123.5" y="-66.2" fill="#424955" width="383.7" height="411.3"/>
	</g>
	<path fill="#42D69D" stroke="#424955" stroke-width="2" stroke-miterlimit="10" d="M119,57.7c-3.4-4.9-3.6-9.6-3.5-14.6
		c0.1-4.4-0.1-9-0.9-13.3c-0.8-4.4-2.8-5.5-7.3-5.8c-0.8-0.1-1.6-0.4-2.2-0.9c-5.5-4-13.8-1.9-16.2,4.6c-1.5,4-2,8.5-2.1,12.9
		c-0.2,8.1-0.5,10.5-3.7,17.2c2.1,0.4,4.1,0.9,6.1,1.2c1,0.2,2,0,3,0.1c1.9,0.2,3.1,1.3,3.1,3.2c0,1.9-1.3,3.2-3.1,3.2
		c-5.7,0-11.2-0.8-15.8-4.5c-3-2.4-2.7-4.5,0.5-6.6c1.1-0.7,2.1-2.2,2.4-3.5c0.7-3.1,0.9-6.3,1.2-9.5c0.5-4.3,0.4-8.7,1.4-12.8
		c2.3-9.5,11-15.3,20.3-13.6c4.3,0.8,8.6,2.4,12.5,4.4c4.8,2.5,6.5,7.4,7,12.4c0.4,3.7,0.2,7.5,0.3,11.2c0.1,2.5-0.1,5,0.5,7.3
		c0.5,1.7,1.8,3.4,3.2,4.5c2.3,1.8,2.8,4,0.4,5.5c-3,1.9-6.5,3.1-9.8,4.6c-0.8,0.3-1.8,0.4-3.5,0.7c2,1.9,3.4,3.6,5.1,4.7
		c2.6,1.6,5.5,3,8.4,3.9c5,1.6,7.8,4.9,8.7,9.9c0.4,2.2,0.5,4.5,0.6,6.8c0.1,2.1-0.8,3.7-3.1,3.7c-2.5,0-3.2-1.7-3.3-3.9
		c-0.1-2.1-0.3-4.2-0.6-6.3c-0.4-2.5-2.1-3.8-4.4-4.8c-4.1-1.8-8.3-3.8-12.1-6.3c-3.5-2.3-5.5-5.9-5.6-10.2c-0.1-3.2,1-4.2,4.2-4.5
		C113.3,58.7,115.8,58.2,119,57.7z"/>
	<path fill="#42D69D" stroke="#424955" stroke-width="2" stroke-miterlimit="10" d="M75.6,30.5c-0.2,6.4-1,12.6-3.6,18.5
		c-4.1,9.5-11.5,14.2-21.7,14.3C40,63.4,32.4,58,28.6,48.2c-3.7-9.7-4.1-19.7-1.7-29.7C29.7,7,39.3,0.5,51.8,1
		C63.5,1.5,72.3,9,74.4,20.4C75,23.8,75.2,27.1,75.6,30.5z M69,30c-0.2-1.9-0.3-4.5-0.6-7c-1.2-9.1-7.3-15.1-15.9-15.7
		c-10.2-0.7-17.3,3.9-19.6,12.9c-0.7,2.7-1,5.6-1.1,8.4c-0.2,6.9,0.5,13.6,3.6,20C40.8,60.1,58,58.7,63.4,51
		C67.8,44.8,68.7,37.9,69,30z"/>
	<path fill="#42D69D" stroke="#424955" stroke-width="2" stroke-miterlimit="10" d="M61.9,69c-0.7,2.1-0.9,3.9-1.8,5.2
		c-1.5,2-1.4,4-1.3,6.2c0.7,16.1,1.4,32.2,2.2,48.3c0,0.3,0,0.6,0,0.8c-0.2,2.2-8.3,9.9-10.6,10c-0.2,0-0.4,0.1-0.5,0
		c-3-2.4-6.2-4.7-9-7.4c-0.9-0.9-1.1-2.8-1.1-4.3c0.5-12.8,1.1-25.6,1.6-38.4c0.2-3.5,0.5-6.9,0.4-10.4c0-1.7-0.7-3.5-1-5.2
		c-0.4-1.7-1.1-3.4-0.9-5c0.1-1.1,1.6-2.6,2.6-2.8c1-0.1,2.3,1.2,3.3,2.1c0.3,0.3,0.2,1.1,0.3,1.6c0.6,2.3,2,3.7,4.4,3.7
		c2.6,0,3.9-1.7,4.5-4c0.2-0.9,0.2-2.1,0.8-2.5c0.9-0.7,2.5-1.4,3.3-1C60.4,66.4,61.1,67.9,61.9,69z M50.4,131.5
		c3.6-1.7,4.6-4.5,4.3-8.4c-0.7-9.5-1-19-1.4-28.5c-0.2-5-0.5-10-0.7-15c-1.6,0-2.8,0-4.1,0c-0.1,1.1-0.3,2-0.3,2.9
		c-0.6,13.8-1,27.6-1.9,41.4C46.1,127.6,47.3,129.9,50.4,131.5z"/>
	<path fill="#42D69D" stroke="#424955" stroke-width="2" stroke-miterlimit="10" d="M1,93c0.3-3,0.4-5.7,0.9-8.4
		c1.3-6.1,4.9-9.9,11.1-12c6.3-2.1,12.3-5.5,18.5-8.1c1.2-0.5,2.9-1.1,4-0.7c2.4,0.7,2.5,4.2-0.1,5.6c-6,3.2-11.9,6.7-18.2,8.7
		c-6.8,2.1-9.8,4.3-9.7,14.1c0,3.3,0.5,6.5,0.9,9.8c0.2,1.9-0.2,3.4-2.1,3.8c-2,0.5-3.6-0.3-3.9-2.4C1.8,99.8,1.4,96.3,1,93z"/>
	<path fill="#42D69D" stroke="#424955" stroke-width="2" stroke-miterlimit="10" d="M100.1,93.3c-0.3,3-0.5,6-1,9
		c-0.4,2.6-2.1,4.1-4,3.5c-2.4-0.8-2.4-2.5-2.2-4.8c0.4-4.7,0.5-9.5,0.2-14.2c-0.3-4.2-3-6.5-7.1-8c-6.6-2.5-13-5.7-19.5-8.6
		c-0.6-0.3-1.1-0.7-1.6-1.1c-1.3-1.3-2-3.1-0.5-4.3c0.9-0.8,3.1-1.2,4-0.7c6.8,4.2,14.1,7.1,21.7,9.6c6.4,2.1,8.7,7.7,9.4,13.9
		c0.2,1.9,0,3.8,0,5.8C99.9,93.3,100,93.3,100.1,93.3z"/>
</g>
</svg>
