<?xml version="1.0" encoding="utf-8"?>
<!-- Generator: Adobe Illustrator 17.1.0, SVG Export Plug-In . SVG Version: 6.00 Build 0)  -->
<!DOCTYPE svg PUBLIC "-//W3C//DTD SVG 1.1//EN" "http://www.w3.org/Graphics/SVG/1.1/DTD/svg11.dtd">
<svg version="1.1" xmlns="http://www.w3.org/2000/svg" xmlns:xlink="http://www.w3.org/1999/xlink" x="0px" y="0px"
	 viewBox="0 0 18.3 14.9" enable-background="new 0 0 18.3 14.9" xml:space="preserve">
<g id="Layer_1" display="none">
	<g id="Menu" display="inline">
	</g>
</g>
<g id="Layer_3">
	<path fill="#FFFFFF" d="M18.3,1.8c-0.7,0.3-1.4,0.5-2.2,0.6c0.8-0.5,1.4-1.2,1.7-2.1c-0.7,0.4-1.5,0.7-2.4,0.9
		C14.7,0.5,13.8,0,12.7,0c-2.1,0-3.8,1.7-3.8,3.8c0,0.3,0,0.6,0.1,0.9C5.9,4.5,3.1,3,1.3,0.7C1,1.2,0.8,1.9,0.8,2.6
		c0,1.3,0.7,2.5,1.7,3.1c-0.6,0-1.2-0.2-1.7-0.5c0,0,0,0,0,0c0,1.8,1.3,3.3,3,3.7c-0.3,0.1-0.6,0.1-1,0.1c-0.2,0-0.5,0-0.7-0.1
		c0.5,1.5,1.9,2.6,3.5,2.6c-1.3,1-2.9,1.6-4.7,1.6c-0.3,0-0.6,0-0.9-0.1c1.7,1.1,3.6,1.7,5.8,1.7c6.9,0,10.7-5.7,10.7-10.7
		c0-0.2,0-0.3,0-0.5C17.2,3.2,17.8,2.5,18.3,1.8z"/>
	<g id="Menu_1_">
	</g>
</g>
</svg>
