<?xml version="1.0" encoding="utf-8"?>
<!-- Generator: Adobe Illustrator 17.1.0, SVG Export Plug-In . SVG Version: 6.00 Build 0)  -->
<!DOCTYPE svg PUBLIC "-//W3C//DTD SVG 1.1//EN" "http://www.w3.org/Graphics/SVG/1.1/DTD/svg11.dtd">
<svg version="1.1" xmlns="http://www.w3.org/2000/svg" xmlns:xlink="http://www.w3.org/1999/xlink" x="0px" y="0px"
	 viewBox="0 0 14.5 14.5" enable-background="new 0 0 14.5 14.5" xml:space="preserve">
<g id="Layer_1" display="none">
	<g id="Menu" display="inline">
	</g>
</g>
<g id="Layer_3">
	<g>
		<g>
			<g>
				<path fill="none" stroke="#4D81EF" stroke-linecap="round" stroke-linejoin="round" stroke-miterlimit="10" d="M14,13.5
					c0,0.2-0.2,0.4-0.4,0.4H0.9c-0.2,0-0.4-0.2-0.4-0.4V0.9c0-0.2,0.2-0.4,0.4-0.4h12.6c0.2,0,0.4,0.2,0.4,0.4V13.5z"/>
			</g>
			<g>
				
					<circle fill="none" stroke="#4D81EF" stroke-linecap="round" stroke-linejoin="round" stroke-miterlimit="10" cx="9.2" cy="4.8" r="0.7"/>
			</g>
			<g>
				<path fill="none" stroke="#4D81EF" stroke-linecap="round" stroke-linejoin="round" stroke-miterlimit="10" d="M0.7,9.4l3.8-3.5
					c0.2-0.2,0.5-0.2,0.7,0l3.3,3.3l1.7-1.6c0.2-0.2,0.5-0.2,0.7,0l2.7,2.8"/>
			</g>
			<g>
				
					<line fill="none" stroke="#4D81EF" stroke-linecap="round" stroke-linejoin="round" stroke-miterlimit="10" x1="0.5" y1="10.3" x2="14" y2="10.3"/>
			</g>
		</g>
	</g>
</g>
</svg>
