<?xml version="1.0" encoding="utf-8"?>
<!-- Generator: Adobe Illustrator 17.1.0, SVG Export Plug-In . SVG Version: 6.00 Build 0)  -->
<!DOCTYPE svg PUBLIC "-//W3C//DTD SVG 1.1//EN" "http://www.w3.org/Graphics/SVG/1.1/DTD/svg11.dtd">
<svg version="1.1" xmlns="http://www.w3.org/2000/svg" xmlns:xlink="http://www.w3.org/1999/xlink" x="0px" y="0px"
	 viewBox="0 0 137.3 28.5" enable-background="new 0 0 137.3 28.5" xml:space="preserve">
<g id="Layer_1" display="none">
	<g id="Menu" display="inline">
	</g>
</g>
<g id="Layer_3">
	<g opacity="0.5">
		<g>
			<path fill="#FFFFFF" d="M12.8,7.5c-1.2,0-2.1,0.5-2.8,1.7c-0.8,1.2-1.1,2.9-1.1,5c0,2.3,0.4,4.1,1.1,5.3c0.7,1.1,1.6,1.7,2.8,1.7
				c1,0,2-0.5,2.7-1.6c0.7-1,1.3-2.8,1.9-5.7c-0.5-2.2-1.1-3.9-1.9-4.9C14.7,8,13.8,7.5,12.8,7.5z"/>
			<path fill="#FFFFFF" d="M20,0H8.5C3.8,0,0,3.8,0,8.5V20c0,4.7,3.8,8.5,8.5,8.5H20c4.7,0,8.5-3.8,8.5-8.5V8.5
				C28.5,3.8,24.7,0,20,0z M25.3,18.7c0,1.5-0.2,2.4-0.6,3.1c-0.5,0.8-1.4,1.3-2.4,1.3c-1,0-1.9-0.5-2.5-1.3c-0.4-0.5-0.7-1.2-1-2.2
				c-0.7,1-1.5,1.8-2.3,2.3c-1.3,0.9-2.7,1.3-4.2,1.3c-2.5,0-4.5-0.8-6.1-2.6c-1.6-1.7-2.3-3.9-2.3-6.7c0-2.4,0.8-4.6,2.4-6.4
				C7.8,6,9.8,5.1,12.2,5.1c1.7,0,3.1,0.6,4.3,1.7c0.7,0.7,1.3,1.6,1.7,2.4c0,0,0,0.1,0.1,0.1c0.4-1.9,0.8-3.9,0.8-3.9h4.7
				c0,0-2.5,8.7-3.3,11.4c0.3,0.8,0.6,1.2,0.9,1.6c0.3,0.3,0.6,0.4,1,0.4c0.5,0,0.8-0.5,0.9-1l0-0.1h2V18.7z"/>
		</g>
		<g>
			<path fill="#FFFFFF" d="M42.8,5.9c-0.3-1.5-1.2-2.5-3.3-2.5c-1.9,0-2.9,1-3.3,2.5l-1.5,6.6h1.6c0.4,0,0.7-0.3,0.8-0.6l0.3-1.3
				h4.1l0.3,1.3c0.1,0.3,0.4,0.6,0.8,0.6h1.6L42.8,5.9 M37.9,8.6l0.5-2.3c0.1-0.4,0.4-1,1.1-1s1.1,0.6,1.1,1l0.5,2.3H37.9z"/>
			<path fill="#FFFFFF" d="M48.1,5.6h3.5v6.9h2.2V3.6h-6.5c-0.7,0-1.3,0.6-1.3,1.3v4.5c0,0.6-0.3,1-0.8,1.1l-0.4,0.1l0.4,1.9h0.4
				c1.5,0,2.5-1.1,2.5-3V5.6"/>
			<path fill="#FFFFFF" d="M72.6,3.6h-0.8v-1h-1.5c-0.4,0-0.6,0.3-0.6,0.6v0.4h-0.8c-2.7,0-4.3,1.8-4.3,4.4c0,2.6,1.7,4.4,4.3,4.4
				h0.8v1.1h1.5c0.4,0,0.6-0.3,0.6-0.6v-0.4h0.8c2.7,0,4.3-1.8,4.3-4.4C76.9,5.4,75.2,3.6,72.6,3.6 M68.8,10.5
				c-1.5,0-2.2-0.9-2.2-2.5c0-1.5,0.7-2.5,2.2-2.5h0.8v4.9H68.8z M72.6,10.5h-0.8V5.6h0.8c1.5,0,2.2,0.9,2.2,2.5
				C74.8,9.6,74.1,10.5,72.6,10.5z"/>
			<path fill="#FFFFFF" d="M60.5,5.9h-3.1V3.6h-2.2v8.2c0,0.4,0.3,0.6,0.6,0.6h4.6c1.9,0,3.3-1.4,3.3-3.3
				C63.8,7.3,62.6,5.9,60.5,5.9 M60.5,10.5h-3.1V7.9h3.1c0.5,0,1.1,0.5,1.1,1.3C61.6,10,61,10.5,60.5,10.5z"/>
			<path fill="#FFFFFF" d="M85,5.9c-0.3-1.5-1.2-2.5-3.3-2.5c-1.9,0-2.9,1-3.3,2.5L77,12.5h1.6c0.4,0,0.7-0.3,0.8-0.6l0.3-1.3h4.1
				l0.3,1.3c0.1,0.3,0.4,0.6,0.8,0.6h1.6L85,5.9 M80.1,8.6l0.5-2.3c0.1-0.4,0.4-1,1.1-1c0.8,0,1.1,0.6,1.1,1l0.5,2.3H80.1z"/>
		</g>
		<g>
			<path fill="#FFFFFF" d="M97.5,20.3c0.4-0.4,0.6-0.9,0.6-1.6c0-1.6-1.2-2.7-2.8-2.7h-5.3c-0.4,0-0.6,0.3-0.6,0.6v7.6
				c0,0.4,0.3,0.6,0.6,0.6l5.6,0c1.7,0,2.8-1.2,2.8-2.8C98.5,21.4,98.1,20.7,97.5,20.3 M95.4,17.9c0.3,0,0.7,0.3,0.7,0.9
				c0,0.6-0.4,0.8-0.7,0.9h-3.8v-1.7H95.4z M95.5,23.1h-4v-1.7h4c0.3,0,0.7,0.3,0.7,0.9C96.2,22.8,95.8,23.1,95.5,23.1z"/>
			<path fill="#FFFFFF" d="M83.2,15.8c-2.7,0-4.5,1.9-4.5,4.6c0,2.7,1.9,4.6,4.5,4.6H84c2.7,0,4.5-1.9,4.5-4.6
				c0-2.7-1.9-4.6-4.5-4.6H83.2 M81,20.5c0-1.6,0.8-2.8,2.3-2.8h0.5c1.5,0,2.3,1.2,2.3,2.8c0,1.6-0.8,2.8-2.3,2.8h-0.5
				C81.9,23.3,81,22.1,81,20.5z"/>
			<path fill="#FFFFFF" d="M42.9,16.1l0.3,1.3c0.1,0.4,0.4,0.6,0.8,0.6h2v6.9h2.2V18h2c0.4,0,0.7-0.3,0.8-0.6l0.3-1.3H42.9"/>
			<polyline fill="#FFFFFF" points="115.7,16.1 115.7,19.6 111.5,19.6 111.5,16.1 109.4,16.1 109.4,24.9 111.5,24.9 111.5,21.5 
				115.7,21.5 115.7,24.9 117.9,24.9 117.9,16.1 115.7,16.1 			"/>
			<path fill="#FFFFFF" d="M68,18.3c-0.3-1.5-1.2-2.5-3.3-2.5c-1.9,0-2.9,1-3.3,2.5l-1.5,6.6h1.6c0.4,0,0.7-0.3,0.8-0.6l0.3-1.3h4.1
				l0.3,1.3c0.1,0.3,0.4,0.6,0.8,0.6h1.6L68,18.3 M63.1,21.1l0.5-2.3c0.1-0.4,0.4-1,1.1-1c0.8,0,1.1,0.6,1.2,1l0.5,2.3H63.1z"/>
			<path fill="#FFFFFF" d="M106.9,18.3c-0.3-1.5-1.2-2.5-3.3-2.5c-1.9,0-2.9,1-3.3,2.5l-1.5,6.6h1.6c0.4,0,0.7-0.3,0.8-0.6l0.3-1.3
				h4.1l0.3,1.3c0.1,0.3,0.4,0.6,0.8,0.6h1.6L106.9,18.3 M102,21.1l0.5-2.3c0.1-0.4,0.4-1,1.1-1c0.8,0,1.1,0.6,1.1,1l0.5,2.3H102z"
				/>
			<path fill="#FFFFFF" d="M43.5,24.9L43.5,24.9l-4.2,0c-2.6,0-4.3-1.8-4.3-4.4c0-2.6,1.8-4.4,4.3-4.4h3.2l-0.3,1.4
				c-0.1,0.3-0.4,0.6-0.8,0.6h-2.1c-1.4,0-2.2,1-2.2,2.4c0,1.4,0.8,2.4,2.2,2.4h3.1c0.4,0,0.7,0.3,0.8,0.6L43.5,24.9"/>
			<path fill="#FFFFFF" d="M56.9,16.1l-4.6,0c-0.4,0-0.6,0.3-0.6,0.6v8.2h2.2v-2.2h3.1c2.1,0,3.3-1.4,3.3-3.3
				C60.3,17.5,58.8,16.1,56.9,16.1 M56.9,20.7h-3.1V18h3.1c0.5,0,1.1,0.5,1.1,1.3C58.1,20.2,57.5,20.7,56.9,20.7z"/>
			<path fill="#FFFFFF" d="M136.2,23h-4.7v-1.7h5.1v-1.7h-5.1v-1.7h4.7c0.4,0,0.7-0.2,0.8-0.6l0.3-1.2h-7.3c-0.4,0-0.6,0.3-0.6,0.6
				v7.6c0,0.4,0.3,0.6,0.6,0.6h7.3l-0.3-1.2C136.9,23.2,136.6,23,136.2,23"/>
			<path fill="#FFFFFF" d="M119.4,24.9v-8.9h2.2v5.8l3.7-5.3c0.2-0.3,0.7-0.5,1-0.5h1.6v8.9h-2.2v-5.8l-3.7,5.3
				c-0.2,0.3-0.7,0.5-1,0.5H119.4"/>
			<path fill="#FFFFFF" d="M76,20.4l3-4.4h-2c-0.4,0-0.7,0.1-1,0.5l-1.6,2.5h-0.3l-1.6-2.5c-0.3-0.4-0.6-0.5-1-0.5h-2.1l3.1,4.5
				l-3,4.4h2c0.4,0,0.7-0.1,1-0.5l1.6-2.5h0.3l1.6,2.5c0.3,0.4,0.6,0.5,1,0.5h2.1L76,20.4"/>
		</g>
	</g>
</g>
</svg>
