<?xml version="1.0" encoding="utf-8"?>
<!-- Generator: Adobe Illustrator 17.1.0, SVG Export Plug-In . SVG Version: 6.00 Build 0)  -->
<!DOCTYPE svg PUBLIC "-//W3C//DTD SVG 1.1//EN" "http://www.w3.org/Graphics/SVG/1.1/DTD/svg11.dtd">
<svg version="1.1" xmlns="http://www.w3.org/2000/svg" xmlns:xlink="http://www.w3.org/1999/xlink" x="0px" y="0px"
	 viewBox="0 0 87.5 87.4" enable-background="new 0 0 87.5 87.4" xml:space="preserve">
<g id="Layer_1" display="none">
	<g id="Menu" display="inline">
	</g>
</g>
<g id="Layer_3">
	<g>
		<path fill="none" stroke="#424955" stroke-width="2" stroke-linecap="round" stroke-linejoin="round" stroke-miterlimit="10" d="
			M43.7,86.4c-13.6,0-27.2,0-40.8,0c-1.8,0-1.9,0-1.9-1.8C1,71,1,57.5,1,43.9c0-1.8,0.3-2,1.9-1.3c9.8,4.5,19.6,8.9,29.4,13.4
			c0.8,0.4,1.1,0.8,1.1,1.6c-0.1,2.4,0,4.8,0,7.3c0,1.2,0.4,1.6,1.6,1.6c5.9,0,11.7,0,17.6,0c1.3,0,1.6-0.4,1.6-1.7
			c0-2.3,0-4.6,0-6.9c0-0.8,0.3-1.3,1.1-1.7c9.9-4.6,19.8-9.1,29.8-13.7c1.2-0.6,1.5-0.4,1.5,1c0,13.9,0,27.7,0,41.6
			c0,1.3-0.6,1.4-1.7,1.4C71.1,86.4,57.4,86.4,43.7,86.4z"/>
		<path fill="none" stroke="#424955" stroke-width="2" stroke-linecap="round" stroke-linejoin="round" stroke-miterlimit="10" d="
			M43.8,1c6.5,0,12.9,0,19.4,0c1.5,0,1.7,0.1,1.7,1.7c0,3.5,0,6.9,0,10.4c0,1.2,0.4,1.6,1.6,1.6c6.1,0,12.3,0,18.4,0
			c1.5,0,1.7,0.1,1.7,1.7c0,5.9,0,11.8,0,17.7c0,1-0.4,1.5-1.3,1.9c-9.8,4.5-19.6,9-29.3,13.5c-1.5,0.7-1.7,0.6-1.8-1.1
			c0-0.8,0-1.5,0-2.3c0-0.8-0.4-1.2-1.2-1.2c-6.1,0-12.3,0-18.4,0c-0.8,0-1.2,0.4-1.2,1.2c0,0.8,0,1.5,0,2.3c0,1.4-0.4,1.7-1.7,1.1
			c-3.3-1.5-6.5-3-9.8-4.5C15.3,41.9,8.7,38.8,2,35.8c-0.7-0.3-1-0.7-1-1.5c0-6,0-12,0-18.1c0-1.2,0.4-1.6,1.5-1.6
			c6.1,0,12.3,0,18.4,0c1.6,0,1.7-0.1,1.7-1.6c0-3.3,0-6.5,0-9.8c0-2.2,0-2.2,2.1-2.2C31.1,1,37.4,1,43.8,1z M43.7,6.6
			c-4.7,0-9.5,0-14.2,0c-1,0-1.5,0.4-1.5,1.4c0,1.7,0,3.5,0,5.2c0,1,0.4,1.4,1.5,1.4c9.5,0,18.9,0,28.4,0c1.1,0,1.5-0.5,1.5-1.5
			c0-1.7-0.1-3.3,0-5c0-1.2-0.5-1.5-1.6-1.5C53.1,6.6,48.4,6.6,43.7,6.6z"/>
	</g>
</g>
</svg>
