<?xml version="1.0" encoding="utf-8"?>
<!-- Generator: Adobe Illustrator 17.1.0, SVG Export Plug-In . SVG Version: 6.00 Build 0)  -->
<!DOCTYPE svg PUBLIC "-//W3C//DTD SVG 1.1//EN" "http://www.w3.org/Graphics/SVG/1.1/DTD/svg11.dtd">
<svg version="1.1" xmlns="http://www.w3.org/2000/svg" xmlns:xlink="http://www.w3.org/1999/xlink" x="0px" y="0px"
	 viewBox="0 0 50 50" enable-background="new 0 0 50 50" xml:space="preserve">
<g id="Layer_1" display="none">
	<g id="Menu" display="inline">
	</g>
</g>
<g id="Layer_3">
	<g>
		<circle fill="#DB2514" cx="25" cy="25" r="25"/>
		<path fill="#FFFFFF" d="M23.7,19c-1.1,0-1.9,0.5-2.5,1.5c-0.7,1.1-1,2.6-1,4.5c0,2.1,0.3,3.6,1,4.7c0.6,1,1.4,1.5,2.5,1.5
			c0.9,0,1.8-0.5,2.4-1.4c0.6-0.9,1.1-2.5,1.7-5.1c-0.4-1.9-1-3.4-1.7-4.3C25.4,19.4,24.6,19,23.7,19z"/>
		<path fill="#FFFFFF" d="M30.2,12.3H19.9c-4.2,0-7.6,3.4-7.6,7.6v10.3c0,4.2,3.4,7.6,7.6,7.6h10.3c4.2,0,7.6-3.4,7.6-7.6V19.8
			C37.7,15.7,34.3,12.3,30.2,12.3z M34.8,28.9c0,1.3-0.2,2.1-0.5,2.8c-0.4,0.7-1.2,1.2-2.1,1.2c-0.9,0-1.7-0.4-2.2-1.2
			c-0.3-0.5-0.6-1.1-0.9-1.9c-0.7,0.9-1.3,1.6-2.1,2.1c-1.2,0.8-2.4,1.2-3.8,1.2c-2.3,0-4-0.7-5.4-2.3c-1.4-1.5-2.1-3.5-2.1-5.9
			c0-2.2,0.7-4.1,2.1-5.7c1.4-1.5,3.2-2.3,5.3-2.3c1.5,0,2.8,0.5,3.9,1.5c0.6,0.6,1.2,1.4,1.5,2.2c0,0,0,0.1,0.1,0.1
			c0.3-1.7,0.7-3.5,0.7-3.5h4.2c0,0-2.2,7.8-2.9,10.2c0.3,0.7,0.5,1.1,0.8,1.4c0.2,0.3,0.5,0.4,0.9,0.4c0.5,0,0.7-0.4,0.8-0.9l0-0.1
			h1.8V28.9z"/>
	</g>
</g>
</svg>
