<?xml version="1.0" encoding="utf-8"?>
<!-- Generator: Adobe Illustrator 17.1.0, SVG Export Plug-In . SVG Version: 6.00 Build 0)  -->
<!DOCTYPE svg PUBLIC "-//W3C//DTD SVG 1.1//EN" "http://www.w3.org/Graphics/SVG/1.1/DTD/svg11.dtd">
<svg version="1.1" xmlns="http://www.w3.org/2000/svg" xmlns:xlink="http://www.w3.org/1999/xlink" x="0px" y="0px"
	 viewBox="0 0 224.1 200.5" enable-background="new 0 0 224.1 200.5" xml:space="preserve">
<g id="Layer_1" display="none">
	<g id="Menu" display="inline">
	</g>
</g>
<g id="Layer_3">
	<path fill="#424955" fill-opacity=".1" d="M162.3,0c20.6,34.9,41.2,69.7,61.8,104.6c-54.1,32-108.2,63.9-162.3,95.9C41.2,165.6,20.6,130.8,0,95.9
		C54.1,64,108.1,32,162.3,0z M119.7,112.4c11.8-33.3,23.5-66.5,35.3-100.1C108.1,40,61.7,67.5,14.8,95.2
		C50.1,101,84.8,106.7,119.7,112.4z M67.2,189.1c47.5-28.1,95.1-56.2,142.7-84.3c-24.6-6.3-49-12.6-73.5-18.9
		c-4,11.3-8,22.7-12.1,34.2c-12.8-2.1-25.4-4.2-37.8-6.2C80,139.1,73.6,164.1,67.2,189.1z M211.8,97.4c-16.5-27.9-33-55.8-49.8-84.3
		c-7.8,22.2-15.5,44-23.1,65.5C163.4,84.9,187.6,91.1,211.8,97.4z M60.3,184.3c6.1-23.7,12.2-47.6,18.4-71.6
		c-22-3.6-44.4-7.3-67.2-11C28,129.6,44.2,157,60.3,184.3z"/>
</g>
</svg>
