<?xml version="1.0" encoding="utf-8"?>
<!-- Generator: Adobe Illustrator 17.1.0, SVG Export Plug-In . SVG Version: 6.00 Build 0)  -->
<!DOCTYPE svg PUBLIC "-//W3C//DTD SVG 1.1//EN" "http://www.w3.org/Graphics/SVG/1.1/DTD/svg11.dtd">
<svg version="1.1" xmlns="http://www.w3.org/2000/svg" xmlns:xlink="http://www.w3.org/1999/xlink" x="0px" y="0px"
	 viewBox="0 0 137 152.4" enable-background="new 0 0 137 152.4" xml:space="preserve">
<g id="Layer_1" display="none">
	<g id="Menu" display="inline">
	</g>
</g>
<g id="Layer_3">
	<g>
		<path fill="none" stroke="#4D81EF" stroke-width="2" stroke-linecap="round" stroke-linejoin="round" stroke-miterlimit="10" d="
			M105.3,41.8v95.2c0,2.5-2,4.5-4.5,4.5H5.5c-2.5,0-4.5-2-4.5-4.5V5.5C1,3,3,1,5.5,1H69"/>
		<path fill="none" stroke="#4D81EF" stroke-width="2" stroke-linecap="round" stroke-linejoin="round" stroke-miterlimit="10" d="
			M69,36.1c0,2.5,2,5.7,4.5,5.7h31.7L69,1V36.1z"/>
		
			<line fill="none" stroke="#4D81EF" stroke-width="2" stroke-linecap="round" stroke-linejoin="round" stroke-miterlimit="10" x1="23.7" y1="60" x2="82.6" y2="60"/>
		
			<line fill="none" stroke="#4D81EF" stroke-width="2" stroke-linecap="round" stroke-linejoin="round" stroke-miterlimit="10" x1="23.7" y1="78.1" x2="82.6" y2="78.1"/>
		
			<line fill="none" stroke="#4D81EF" stroke-width="2" stroke-linecap="round" stroke-linejoin="round" stroke-miterlimit="10" x1="23.7" y1="41.8" x2="50.9" y2="41.8"/>
		
			<line fill="none" stroke="#4D81EF" stroke-width="2" stroke-linecap="round" stroke-linejoin="round" stroke-miterlimit="10" x1="23.7" y1="96.2" x2="82.6" y2="96.2"/>
		
			<line fill="none" stroke="#4D81EF" stroke-width="2" stroke-linecap="round" stroke-linejoin="round" stroke-miterlimit="10" x1="23.7" y1="114.4" x2="82.6" y2="114.4"/>
		<g>
			
				<path fill="#FFFFFF" stroke="#4D81EF" stroke-width="2" stroke-linecap="round" stroke-linejoin="round" stroke-miterlimit="10" d="
				M119.6,98l15.2-15.2c1.7-1.7,1.7-4.4,0-6.1l-21.2-21.2c-1.7-1.7-4.4-1.7-6.1,0L92.3,70.7"/>
			
				<polygon fill="#FFFFFF" stroke="#4D81EF" stroke-width="2" stroke-linecap="round" stroke-linejoin="round" stroke-miterlimit="10" points="
				51.1,112 92.5,70.7 119.7,98 78.8,139.3 38.3,151.4 			"/>
			<polyline fill="none" stroke="#4D81EF" stroke-width="2" stroke-linejoin="round" stroke-miterlimit="10" points="112.2,90.6 
				74.8,127.2 78.3,139.3 			"/>
			<polyline fill="none" stroke="#4D81EF" stroke-width="2" stroke-linejoin="round" stroke-miterlimit="10" points="51,112 
				62.8,114.7 99.5,77.9 			"/>
			
				<polyline fill="none" stroke="#4D81EF" stroke-width="2" stroke-linecap="round" stroke-linejoin="round" stroke-miterlimit="10" points="
				62.6,115 62.6,127.2 74.8,127.2 			"/>
		</g>
	</g>
</g>
</svg>
