<?xml version="1.0" encoding="utf-8"?>
<!-- Generator: Adobe Illustrator 17.1.0, SVG Export Plug-In . SVG Version: 6.00 Build 0)  -->
<!DOCTYPE svg PUBLIC "-//W3C//DTD SVG 1.1//EN" "http://www.w3.org/Graphics/SVG/1.1/DTD/svg11.dtd">
<svg version="1.1" xmlns="http://www.w3.org/2000/svg" xmlns:xlink="http://www.w3.org/1999/xlink" x="0px" y="0px"
	 viewBox="0 0 125.4 134.7" enable-background="new 0 0 125.4 134.7" xml:space="preserve">
<g id="Layer_1" display="none">
	<g id="Menu" display="inline">
	</g>
</g>
<g id="Layer_3">
	<rect x="-1042.5" y="-4190.3" fill="none" width="15551.3" height="7776.2"/>
	<rect x="-577.3" y="-3711.8" fill="none" width="1280" height="4111"/>
	<g>
		<rect x="-129.1" y="-58.4" fill="none" width="383.7" height="411.3"/>
	</g>
	<path fill="#4D81EF" stroke="" stroke-miterlimit="10" d="M33.3,87.5c3.5-1,6.7-1.8,9.9-2.9c5.8-1.9,11.7-2.7,17.7-1.5
		c4.5,0.9,8,3.5,10.4,7.3c0.8,1.2,1.6,1.6,3,1.5c4.8-0.1,9.5,0,14.3,0C95,92,99,96,99,102.5c0,0.3,0,0.6,0.1,1.2
		c2.7,0.2,5.4,0.4,7.9-0.9c2.4-1.2,4.7-2.5,7.3-3.3c1.7-0.6,3.8-0.8,5.5-0.5c3.9,0.7,5.8,4.5,4.9,8.8c-0.7,3.2-2.6,5.7-5.2,7.6
		c-11.6,8.4-24.1,14.8-38.5,16.4c-6.9,0.8-13.8-0.5-20.5-2c-7.4-1.6-22-2.9-27.2-2.4c0,1.4,0,2.8,0,4.2c0,1.7-0.9,2.7-2.7,2.7
		c-9.2,0-18.4,0-27.6,0c-1.7,0-2.6-1-2.6-2.7c0-16.9,0-33.9,0-50.8c0-1.9,0.9-2.8,2.7-2.8c9.1,0,18.2,0,27.4,0
		c1.9,0,2.7,0.9,2.7,2.8C33.4,82.8,33.3,84.9,33.3,87.5z M33.4,122c8.4,0.9,16.6,1.6,24.7,2.5c5.4,0.7,10.6,2.2,16,2.5
		c16.7,0.8,30.4-6.7,43.3-16.2c1.1-0.8,2-2.3,2.4-3.6c0.3-1,0.3-2.6-0.3-3.2c-0.6-0.6-2.2-0.7-3.2-0.3c-2.3,0.8-4.5,2.1-6.8,3
		c-2,0.8-4.1,1.7-6.1,1.7c-9.1,0.2-18.1,0.1-27.2,0.1c-1.6,0-2.9-0.5-3-2.3c-0.1-1.5,1.1-2.4,3.1-2.4c4.2,0,8.3,0,12.5,0
		c1.8,0,3.6,0,5.4,0c0.4-5-1.5-7-6.2-7c-5.3,0-10.6-0.1-15.8,0c-1.9,0-3.1-0.6-4-2.4c-2-3.8-5-6.4-9.4-6.8c-2.4-0.2-5-0.5-7.4,0
		c-6,1.3-11.9,3-18,4.6C33.4,102.2,33.4,112.2,33.4,122z M28.5,129.5c0-15.7,0-31.2,0-46.7c-7.8,0-15.6,0-23.2,0
		c0,15.6,0,31.1,0,46.7C13.1,129.5,20.7,129.5,28.5,129.5z"/>
	<path fill="#4D81EF" stroke="" stroke-miterlimit="10" d="M101.3,35.7c12.7-0.1,23.4,10.4,23.5,23.2
		c0.1,12.9-10.4,23.6-23.1,23.7c-13.1,0.1-23.7-10.3-23.8-23.3C77.8,46.4,88.3,35.8,101.3,35.7z M101.4,77.9
		c10.3,0,18.7-8.4,18.8-18.8c0-10.3-8.5-18.8-18.8-18.8c-10.2,0-18.7,8.4-18.8,18.6C82.6,69.4,91,77.9,101.4,77.9z"/>
	<path fill="#4D81EF" stroke="" stroke-miterlimit="10" d="M80.3,23.9c0,12.9-10.6,23.5-23.5,23.5
		c-12.9,0-23.5-10.7-23.4-23.5C33.4,11,43.9,0.5,56.7,0.5C69.6,0.5,80.3,11,80.3,23.9z M56.7,42.7c10.3,0,18.8-8.4,18.8-18.7
		c0-10.3-8.4-18.8-18.7-18.8c-10.3,0-18.8,8.4-18.8,18.7C38,34.2,46.4,42.7,56.7,42.7z"/>
	<text transform="matrix(1 0 0 1 48.0465 32.3993)" fill="#4D81EF" font-family="'SFUIDisplay-Medium'" font-size="24">€</text>
	<text transform="matrix(1 0 0 1 94.8695 67.5516)" fill="#4D81EF" font-family="'SFUIDisplay-Medium'" font-size="24">₽</text>
</g>
</svg>
