<?xml version="1.0" encoding="utf-8"?>
<!-- Generator: Adobe Illustrator 17.1.0, SVG Export Plug-In . SVG Version: 6.00 Build 0)  -->
<!DOCTYPE svg PUBLIC "-//W3C//DTD SVG 1.1//EN" "http://www.w3.org/Graphics/SVG/1.1/DTD/svg11.dtd">
<svg version="1.1" xmlns="http://www.w3.org/2000/svg" xmlns:xlink="http://www.w3.org/1999/xlink" x="0px" y="0px"
	 viewBox="0 0 139.2 104.9" enable-background="new 0 0 139.2 104.9" xml:space="preserve">
<g id="Layer_1" display="none">
	<g id="Menu" display="inline">
	</g>
</g>
<g id="Layer_3">
	<rect x="-4794.6" y="-1605.6" fill="none" width="15551.3" height="7776.2"/>
	<g>
		<path fill="none" stroke="#42D69D" stroke-width="2" stroke-linecap="round" stroke-linejoin="round" stroke-miterlimit="10" d="
			M69.6,8.4v-4C69.6,2.4,71,1,73,1h54.9c2,0,3.4,1.4,3.4,3.4v96.1c0,2-1.4,3.4-3.4,3.4H73c-2,0-3.4-1.4-3.4-3.4v-3.1"/>

			<line fill="none" stroke="#42D69D" stroke-width="2" stroke-linecap="round" stroke-linejoin="round" stroke-miterlimit="10" x1="138.2" y1="7.9" x2="138.2" y2="97.1"/>
		<path fill="none" stroke="#42D69D" stroke-width="2" stroke-linecap="round" stroke-linejoin="round" stroke-miterlimit="10" d="
			M69.6,8.4v-4c0-2-1.4-3.4-3.4-3.4H11.3c-2,0-3.4,1.4-3.4,3.4v96.1c0,2,1.4,3.4,3.4,3.4h54.9c2,0,3.4-1.4,3.4-3.4v-3.1"/>

			<line fill="none" stroke="#42D69D" stroke-width="2" stroke-linecap="round" stroke-linejoin="round" stroke-miterlimit="10" x1="1" y1="7.9" x2="1" y2="97.1"/>

			<line fill="none" stroke="#42D69D" stroke-width="2" stroke-linecap="round" stroke-linejoin="round" stroke-miterlimit="10" x1="69.6" y1="8.4" x2="69.6" y2="100.1"/>
		<g>

				<line fill="none" stroke="#42D69D" stroke-width="2" stroke-linecap="round" stroke-linejoin="round" stroke-miterlimit="10" x1="18.2" y1="31.9" x2="59.3" y2="31.9"/>

				<line fill="none" stroke="#42D69D" stroke-width="2" stroke-linecap="round" stroke-linejoin="round" stroke-miterlimit="10" x1="18.2" y1="45.6" x2="59.3" y2="45.6"/>

				<line fill="none" stroke="#42D69D" stroke-width="2" stroke-linecap="round" stroke-linejoin="round" stroke-miterlimit="10" x1="18.2" y1="18.2" x2="59.3" y2="18.2"/>

				<line fill="none" stroke="#42D69D" stroke-width="2" stroke-linecap="round" stroke-linejoin="round" stroke-miterlimit="10" x1="18.2" y1="59.3" x2="59.3" y2="59.3"/>

				<line fill="none" stroke="#42D69D" stroke-width="2" stroke-linecap="round" stroke-linejoin="round" stroke-miterlimit="10" x1="18.2" y1="73" x2="59.3" y2="73"/>

				<line fill="none" stroke="#42D69D" stroke-width="2" stroke-linecap="round" stroke-linejoin="round" stroke-miterlimit="10" x1="18.2" y1="86.8" x2="59.3" y2="86.8"/>
		</g>
		<g>

				<line fill="none" stroke="#42D69D" stroke-width="2" stroke-linecap="round" stroke-linejoin="round" stroke-miterlimit="10" x1="79.9" y1="31.9" x2="121.1" y2="31.9"/>

				<line fill="none" stroke="#42D69D" stroke-width="2" stroke-linecap="round" stroke-linejoin="round" stroke-miterlimit="10" x1="79.9" y1="45.6" x2="121.1" y2="45.6"/>

				<line fill="none" stroke="#42D69D" stroke-width="2" stroke-linecap="round" stroke-linejoin="round" stroke-miterlimit="10" x1="79.9" y1="18.2" x2="121.1" y2="18.2"/>

				<line fill="none" stroke="#42D69D" stroke-width="2" stroke-linecap="round" stroke-linejoin="round" stroke-miterlimit="10" x1="79.9" y1="59.3" x2="121.1" y2="59.3"/>

				<line fill="none" stroke="#42D69D" stroke-width="2" stroke-linecap="round" stroke-linejoin="round" stroke-miterlimit="10" x1="79.9" y1="73" x2="121.1" y2="73"/>

				<line fill="none" stroke="#42D69D" stroke-width="2" stroke-linecap="round" stroke-linejoin="round" stroke-miterlimit="10" x1="79.9" y1="86.8" x2="121.1" y2="86.8"/>
		</g>
	</g>
</g>
</svg>
