<?xml version="1.0" encoding="utf-8"?>
<!-- Generator: Adobe Illustrator 17.1.0, SVG Export Plug-In . SVG Version: 6.00 Build 0)  -->
<!DOCTYPE svg PUBLIC "-//W3C//DTD SVG 1.1//EN" "http://www.w3.org/Graphics/SVG/1.1/DTD/svg11.dtd">
<svg version="1.1" xmlns="http://www.w3.org/2000/svg" xmlns:xlink="http://www.w3.org/1999/xlink" x="0px" y="0px"
	 viewBox="0 0 21.4 12.2" enable-background="new 0 0 21.4 12.2" xml:space="preserve">
<g id="Layer_1" display="none">
	<g id="Menu" display="inline">
	</g>
</g>
<g id="Layer_3">
	<path class="fill" d="M10.5,12.1h1.3c0,0,0.4,0,0.6-0.3c0.2-0.2,0.2-0.6,0.2-0.6
		s0-1.7,0.8-2c0.8-0.2,1.8,1.7,2.9,2.4c0.8,0.6,1.4,0.4,1.4,0.4l2.9,0c0,0,1.5-0.1,0.8-1.3c-0.1-0.1-0.4-0.9-2.1-2.5
		c-1.8-1.7-1.6-1.4,0.6-4.3c1.3-1.8,1.8-2.8,1.7-3.3c-0.2-0.4-1.1-0.3-1.1-0.3l-3.2,0c0,0-0.2,0-0.4,0.1C16.4,0.8,16.3,1,16.3,1
		s-0.5,1.4-1.2,2.5c-1.4,2.4-2,2.6-2.2,2.4c-0.5-0.4-0.4-1.4-0.4-2.2c0-2.4,0.4-3.3-0.7-3.6C11.4,0.1,11.2,0,10.3,0
		C9.1,0,8.2,0,7.6,0.3C7.2,0.5,7,0.9,7.1,0.9c0.2,0,0.7,0.1,0.9,0.5c0.3,0.4,0.3,1.5,0.3,1.5S8.6,5.6,8,5.9c-0.4,0.2-1-0.2-2.3-2.5
		C5,2.3,4.5,1.1,4.5,1.1S4.4,0.9,4.2,0.7C4,0.6,3.8,0.5,3.8,0.5l-3.1,0c0,0-0.5,0-0.6,0.2c-0.1,0.2,0,0.5,0,0.5s2.4,5.6,5.1,8.4
		C7.6,12.3,10.5,12.1,10.5,12.1L10.5,12.1z"/>
	<g id="Menu_1_">
	</g>
</g>
</svg>
