<?xml version="1.0" encoding="utf-8"?>
<!-- Generator: Adobe Illustrator 17.1.0, SVG Export Plug-In . SVG Version: 6.00 Build 0)  -->
<!DOCTYPE svg PUBLIC "-//W3C//DTD SVG 1.1//EN" "http://www.w3.org/Graphics/SVG/1.1/DTD/svg11.dtd">
<svg version="1.1" id="Layer_1" xmlns="http://www.w3.org/2000/svg" xmlns:xlink="http://www.w3.org/1999/xlink" x="0px" y="0px"
	 viewBox="0 0 1326 523.7" enable-background="new 0 0 1326 523.7" xml:space="preserve">
<g>
	<path fill="#FFFFFF" d="M1324.2,0H1.7C0.8,0,0,0.8,0,1.7v413.9c0,1,0.8,1.7,1.7,1.7h201.8v106.2l150.6-106.2h970.1
		c1,0,1.7-0.8,1.7-1.7V1.7C1326,0.8,1325.2,0,1324.2,0z"/>
	<g>
		<path fill="#538DF6" d="M147,317.5L253,154.7H117.6v-51h199.5v49.1L214.7,317.5H147z"/>
		<path fill="#538DF6" d="M449.7,103.7v213.8h-56.8V153.9H355v-50.3H449.7z"/>
		<path fill="#538DF6" d="M582.2,103.7v213.8h-56.8V153.9h-37.9v-50.3H582.2z"/>
		<path fill="#538DF6" d="M696.6,284.6c0,21.3-17.4,36.7-38.7,36.7c-20.9,0-37.9-15.5-37.9-36.7c0-20.9,17-37.9,37.9-37.9
			C679.2,246.7,696.6,263.7,696.6,284.6z"/>
		<path fill="#538DF6" d="M860.8,103.7c51.4,0,89.3,34.4,89.3,85.1c0,31.7-14.7,56.1-38.7,70.4l32.5,58.4h-61.9l-24.4-45.6h-66.5
			v45.6h-56.8V103.7H860.8z M791.2,220h67.3c20.1,0,34.4-10.4,34.4-31.3c0-20.5-14.3-33.2-34.4-33.2h-67.3V220z"/>
		<path fill="#538DF6" d="M1044.8,103.7v109.4c0,37.9,16.6,59.9,53.4,59.9c36.3,0,53-22,53-59.9V103.7h57.2v109
			c0,70.8-42.9,110.2-110.2,110.2S988,283.4,988,212.7v-109H1044.8z"/>
	</g>
</g>
</svg>
